<?xml version="1.0" encoding="UTF-8" standalone="no"?>
<!DOCTYPE svg PUBLIC "-//W3C//DTD SVG 1.1//EN"
 "http://www.w3.org/Graphics/SVG/1.1/DTD/svg11.dtd">
<!-- Generated by graphviz version 2.38.0 (20140413.2041)
 -->
<!-- Title: %3 Pages: 1 -->
<svg width="997pt" height="282pt"
 viewBox="0.00 0.00 997.20 282.00" xmlns="http://www.w3.org/2000/svg" xmlns:xlink="http://www.w3.org/1999/xlink">
<g id="graph0" class="graph" transform="scale(1 1) rotate(0) translate(4 278)">
<title>%3</title>
<polygon fill="white" stroke="none" points="-4,4 -4,-278 993.203,-278 993.203,4 -4,4"/>
<g id="clust1" class="cluster"><title>cluster_browser</title>
<polygon fill="none" stroke="black" points="8,-8 8,-266 648.203,-266 648.203,-8 8,-8"/>
<text text-anchor="middle" x="328.102" y="-250.8" font-family="Times New Roman,serif" font-size="14.00">Browser</text>
</g>
<g id="clust3" class="cluster"><title>cluster_js</title>
<polygon fill="none" stroke="black" points="271.203,-160 271.203,-235 640.203,-235 640.203,-160 271.203,-160"/>
<text text-anchor="middle" x="455.703" y="-219.8" font-family="Times New Roman,serif" font-size="14.00">jslibs/some/parseTestResult.js</text>
</g>
<g id="clust2" class="cluster"><title>cluster_php</title>
<polygon fill="none" stroke="black" points="16,-16 16,-235 251.203,-235 251.203,-16 16,-16"/>
<text text-anchor="middle" x="133.602" y="-219.8" font-family="Times New Roman,serif" font-size="14.00">subPages/compileReportBatchID.php</text>
</g>
<g id="clust4" class="cluster"><title>cluster_server</title>
<polygon fill="none" stroke="black" points="656.203,-152 656.203,-266 989.203,-266 989.203,-152 656.203,-152"/>
<text text-anchor="middle" x="822.703" y="-250.8" font-family="Times New Roman,serif" font-size="14.00">Server</text>
</g>
<g id="clust5" class="cluster"><title>cluster_server1</title>
<polygon fill="none" stroke="black" points="664.203,-160 664.203,-235 981.203,-235 981.203,-160 664.203,-160"/>
<text text-anchor="middle" x="822.703" y="-219.8" font-family="Times New Roman,serif" font-size="14.00">phplibs/createReport/swtGenTempFlatDataNoise.php</text>
</g>
<!-- php1 -->
<g id="node1" class="node"><title>php1</title>
<polygon fill="none" stroke="black" points="177.335,-178.544 177.335,-193.456 151.717,-204 115.487,-204 89.8682,-193.456 89.8682,-178.544 115.487,-168 151.717,-168 177.335,-178.544"/>
<text text-anchor="middle" x="133.602" y="-182.3" font-family="Times New Roman,serif" font-size="14.00">generate</text>
</g>
<!-- js1 -->
<g id="node4" class="node"><title>js1</title>
<path fill="none" stroke="black" d="M435.203,-204C435.203,-204 291.203,-204 291.203,-204 285.203,-204 279.203,-198 279.203,-192 279.203,-192 279.203,-180 279.203,-180 279.203,-174 285.203,-168 291.203,-168 291.203,-168 435.203,-168 435.203,-168 441.203,-168 447.203,-174 447.203,-180 447.203,-180 447.203,-192 447.203,-192 447.203,-198 441.203,-204 435.203,-204"/>
<text text-anchor="middle" x="363.203" y="-182.3" font-family="Times New Roman,serif" font-size="14.00">swtGenerateRoutineReport</text>
</g>
<!-- php1&#45;&gt;js1 -->
<g id="edge1" class="edge"><title>php1&#45;&gt;js1</title>
<path fill="none" stroke="black" d="M177.412,-186C203.207,-186 237.105,-186 268.816,-186"/>
<polygon fill="black" stroke="black" points="269.022,-189.5 279.022,-186 269.022,-182.5 269.022,-189.5"/>
</g>
<!-- input1 -->
<g id="node2" class="node"><title>input1</title>
<ellipse fill="none" stroke="black" cx="133.602" cy="-123" rx="109.703" ry="26.7407"/>
<text text-anchor="middle" x="133.602" y="-126.8" font-family="Times New Roman,serif" font-size="14.00">hidden:valMachineIDList</text>
<text text-anchor="middle" x="133.602" y="-111.8" font-family="Times New Roman,serif" font-size="14.00">int 列表</text>
</g>
<!-- input2 -->
<g id="node3" class="node"><title>input2</title>
<ellipse fill="none" stroke="black" cx="133.602" cy="-51" rx="101.233" ry="26.7407"/>
<text text-anchor="middle" x="133.602" y="-54.8" font-family="Times New Roman,serif" font-size="14.00">hidden:valCardSysList</text>
<text text-anchor="middle" x="133.602" y="-39.8" font-family="Times New Roman,serif" font-size="14.00">显卡、系统名称列表</text>
</g>
<!-- js2 -->
<g id="node5" class="node"><title>js2</title>
<path fill="none" stroke="black" d="M620.203,-204C620.203,-204 495.203,-204 495.203,-204 489.203,-204 483.203,-198 483.203,-192 483.203,-192 483.203,-180 483.203,-180 483.203,-174 489.203,-168 495.203,-168 495.203,-168 620.203,-168 620.203,-168 626.203,-168 632.203,-174 632.203,-180 632.203,-180 632.203,-192 632.203,-192 632.203,-198 626.203,-204 620.203,-204"/>
<text text-anchor="middle" x="557.703" y="-182.3" font-family="Times New Roman,serif" font-size="14.00">swtDoGenerateFlatData</text>
</g>
<!-- js1&#45;&gt;js2 -->
<g id="edge2" class="edge"><title>js1&#45;&gt;js2</title>
<path fill="none" stroke="black" d="M447.237,-186C455.701,-186 464.304,-186 472.778,-186"/>
<polygon fill="black" stroke="black" points="473.032,-189.5 483.032,-186 473.032,-182.5 473.032,-189.5"/>
</g>
<!-- p2 -->
<g id="node6" class="node"><title>p2</title>
<ellipse fill="none" stroke="black" cx="822.203" cy="-186" rx="27" ry="18"/>
<text text-anchor="middle" x="822.203" y="-182.3" font-family="Times New Roman,serif" font-size="14.00">php</text>
</g>
<!-- js2&#45;&gt;p2 -->
<g id="edge3" class="edge"><title>js2&#45;&gt;p2</title>
<path fill="none" stroke="black" d="M632.523,-186C682.251,-186 745.681,-186 784.861,-186"/>
<polygon fill="black" stroke="black" points="784.996,-189.5 794.996,-186 784.996,-182.5 784.996,-189.5"/>
</g>
</g>
</svg>
