<?xml version="1.0" encoding="UTF-8" standalone="no"?>
<!DOCTYPE svg PUBLIC "-//W3C//DTD SVG 1.1//EN"
 "http://www.w3.org/Graphics/SVG/1.1/DTD/svg11.dtd">
<!-- Generated by graphviz version 2.38.0 (20140413.2041)
 -->
<!-- Title: %3 Pages: 1 -->
<svg width="486pt" height="1077pt"
 viewBox="0.00 0.00 486.17 1077.00" xmlns="http://www.w3.org/2000/svg" xmlns:xlink="http://www.w3.org/1999/xlink">
<g id="graph0" class="graph" transform="scale(1 1) rotate(0) translate(4 1073)">
<title>%3</title>
<polygon fill="white" stroke="none" points="-4,4 -4,-1073 482.173,-1073 482.173,4 -4,4"/>
<g id="clust1" class="cluster"><title>cluster_icd</title>
<polygon fill="none" stroke="black" points="46.6442,-44 46.6442,-258 380.173,-258 380.173,-44 46.6442,-44"/>
<text text-anchor="middle" x="213.409" y="-242.8" font-family="Times New Roman,serif" font-size="14.00">icd</text>
</g>
<g id="clust3" class="cluster"><title>cluster_wsi</title>
<polygon fill="none" stroke="black" points="54.6442,-152 54.6442,-227 124.644,-227 124.644,-152 54.6442,-152"/>
<text text-anchor="middle" x="89.6442" y="-211.8" font-family="Times New Roman,serif" font-size="14.00">wsi</text>
</g>
<g id="clust2" class="cluster"><title>cluster_scl</title>
<polygon fill="none" stroke="black" points="183.288,-52 183.288,-181 372.173,-181 372.173,-52 183.288,-52"/>
<text text-anchor="middle" x="277.731" y="-165.8" font-family="Times New Roman,serif" font-size="14.00">scl</text>
</g>
<g id="clust4" class="cluster"><title>cluster_imported</title>
<polygon fill="none" stroke="black" points="8,-266 8,-1061 470.173,-1061 470.173,-266 8,-266"/>
<text text-anchor="middle" x="239.087" y="-1045.8" font-family="Times New Roman,serif" font-size="14.00">imported</text>
</g>
<g id="clust5" class="cluster"><title>cluster_bil</title>
<polygon fill="none" stroke="black" points="54.6442,-955 54.6442,-1030 124.644,-1030 124.644,-955 54.6442,-955"/>
<text text-anchor="middle" x="89.6442" y="-1014.8" font-family="Times New Roman,serif" font-size="14.00">bil</text>
</g>
<g id="clust6" class="cluster"><title>cluster_glslang</title>
<polygon fill="none" stroke="black" points="16,-656 16,-947 163.288,-947 163.288,-656 16,-656"/>
<text text-anchor="middle" x="89.6442" y="-931.8" font-family="Times New Roman,serif" font-size="14.00">glslang</text>
</g>
<g id="clust8" class="cluster"><title>cluster_sc</title>
<polygon fill="none" stroke="black" points="242.731,-656 242.731,-731 462.173,-731 462.173,-656 242.731,-656"/>
<text text-anchor="middle" x="352.452" y="-715.8" font-family="Times New Roman,serif" font-size="14.00">sc</text>
</g>
<g id="clust7" class="cluster"><title>cluster_pal</title>
<polygon fill="none" stroke="black" points="54.6442,-357 54.6442,-648 333.826,-648 333.826,-357 54.6442,-357"/>
<text text-anchor="middle" x="194.235" y="-632.8" font-family="Times New Roman,serif" font-size="14.00">pal</text>
</g>
<g id="clust9" class="cluster"><title>cluster_spirv</title>
<polygon fill="none" stroke="black" points="53.0467,-274 53.0467,-349 126.242,-349 126.242,-274 53.0467,-274"/>
<text text-anchor="middle" x="89.6442" y="-333.8" font-family="Times New Roman,serif" font-size="14.00">spirv</text>
</g>
<!-- oglp_glsl_compiler -->
<g id="node1" class="node"><title>oglp_glsl_compiler</title>
<ellipse fill="none" stroke="black" cx="277.731" cy="-132" rx="80.6858" ry="18"/>
<text text-anchor="middle" x="277.731" y="-128.3" font-family="Times New Roman,serif" font-size="14.00">oglp_glsl_compiler</text>
</g>
<!-- oglp_spirv_compiler -->
<g id="node2" class="node"><title>oglp_spirv_compiler</title>
<ellipse fill="none" stroke="black" cx="277.731" cy="-78" rx="86.3847" ry="18"/>
<text text-anchor="middle" x="277.731" y="-74.3" font-family="Times New Roman,serif" font-size="14.00">oglp_spirv_compiler</text>
</g>
<!-- wgl -->
<g id="node3" class="node"><title>wgl</title>
<ellipse fill="none" stroke="black" cx="89.6442" cy="-178" rx="27" ry="18"/>
<text text-anchor="middle" x="89.6442" y="-174.3" font-family="Times New Roman,serif" font-size="14.00">wgl</text>
</g>
<!-- glapi -->
<g id="node4" class="node"><title>glapi</title>
<ellipse fill="none" stroke="black" cx="89.6442" cy="-124" rx="27.8951" ry="18"/>
<text text-anchor="middle" x="89.6442" y="-120.3" font-family="Times New Roman,serif" font-size="14.00">glapi</text>
</g>
<!-- glapi&#45;&gt;oglp_glsl_compiler -->
<g id="edge10" class="edge"><title>glapi&#45;&gt;oglp_glsl_compiler</title>
<path fill="none" stroke="black" d="M117.703,-125.163C136.479,-125.97 162.643,-127.095 188.333,-128.2"/>
<polygon fill="black" stroke="black" points="188.379,-131.705 198.52,-128.638 188.68,-124.711 188.379,-131.705"/>
</g>
<!-- glapi&#45;&gt;oglp_spirv_compiler -->
<g id="edge9" class="edge"><title>glapi&#45;&gt;oglp_spirv_compiler</title>
<path fill="none" stroke="black" d="M116.129,-117.7C140.575,-111.657 178.521,-102.277 211.392,-94.1516"/>
<polygon fill="black" stroke="black" points="212.541,-97.4728 221.409,-91.6753 210.862,-90.6774 212.541,-97.4728"/>
</g>
<!-- utils -->
<g id="node6" class="node"><title>utils</title>
<ellipse fill="none" stroke="black" cx="277.731" cy="-207" rx="27" ry="18"/>
<text text-anchor="middle" x="277.731" y="-203.3" font-family="Times New Roman,serif" font-size="14.00">utils</text>
</g>
<!-- glapi&#45;&gt;utils -->
<g id="edge8" class="edge"><title>glapi&#45;&gt;utils</title>
<path fill="none" stroke="black" d="M117.191,-127.813C132.093,-131.084 150.254,-137.084 163.288,-148 177.62,-160.002 168.444,-173.639 183.288,-185 199.592,-197.478 221.842,-203.041 240.54,-205.455"/>
<polygon fill="black" stroke="black" points="240.193,-208.938 250.503,-206.496 240.921,-201.976 240.193,-208.938"/>
</g>
<!-- setupapi -->
<g id="node22" class="node"><title>setupapi</title>
<ellipse fill="none" stroke="black" cx="277.731" cy="-18" rx="40.8928" ry="18"/>
<text text-anchor="middle" x="277.731" y="-14.3" font-family="Times New Roman,serif" font-size="14.00">setupapi</text>
</g>
<!-- glapi&#45;&gt;setupapi -->
<g id="edge11" class="edge"><title>glapi&#45;&gt;setupapi</title>
<path fill="none" stroke="black" d="M116.985,-119.661C132.189,-115.943 150.726,-109.171 163.288,-97 180.182,-80.6329 166.029,-63.9812 183.288,-48 195.609,-36.5922 212.29,-29.5217 228.15,-25.1396"/>
<polygon fill="black" stroke="black" points="229,-28.5349 237.872,-22.7439 227.325,-21.7382 229,-28.5349"/>
</g>
<!-- glcore -->
<g id="node5" class="node"><title>glcore</title>
<ellipse fill="none" stroke="black" cx="89.6442" cy="-70" rx="33.2948" ry="18"/>
<text text-anchor="middle" x="89.6442" y="-66.3" font-family="Times New Roman,serif" font-size="14.00">glcore</text>
</g>
<!-- bil -->
<g id="node7" class="node"><title>bil</title>
<ellipse fill="none" stroke="black" cx="89.6442" cy="-981" rx="27" ry="18"/>
<text text-anchor="middle" x="89.6442" y="-977.3" font-family="Times New Roman,serif" font-size="14.00">bil</text>
</g>
<!-- glslang -->
<g id="node8" class="node"><title>glslang</title>
<ellipse fill="none" stroke="black" cx="89.6442" cy="-898" rx="35.9954" ry="18"/>
<text text-anchor="middle" x="89.6442" y="-894.3" font-family="Times New Roman,serif" font-size="14.00">glslang</text>
</g>
<!-- OGLCompiler -->
<g id="node9" class="node"><title>OGLCompiler</title>
<ellipse fill="none" stroke="black" cx="89.6442" cy="-844" rx="63.8893" ry="18"/>
<text text-anchor="middle" x="89.6442" y="-840.3" font-family="Times New Roman,serif" font-size="14.00">OGLCompiler</text>
</g>
<!-- OSDependent -->
<g id="node10" class="node"><title>OSDependent</title>
<ellipse fill="none" stroke="black" cx="89.6442" cy="-790" rx="61.99" ry="18"/>
<text text-anchor="middle" x="89.6442" y="-786.3" font-family="Times New Roman,serif" font-size="14.00">OSDependent</text>
</g>
<!-- SPIRV -->
<g id="node11" class="node"><title>SPIRV</title>
<ellipse fill="none" stroke="black" cx="89.6442" cy="-736" rx="37.0935" ry="18"/>
<text text-anchor="middle" x="89.6442" y="-732.3" font-family="Times New Roman,serif" font-size="14.00">SPIRV</text>
</g>
<!-- SPVRemapper -->
<g id="node12" class="node"><title>SPVRemapper</title>
<ellipse fill="none" stroke="black" cx="89.6442" cy="-682" rx="65.7887" ry="18"/>
<text text-anchor="middle" x="89.6442" y="-678.3" font-family="Times New Roman,serif" font-size="14.00">SPVRemapper</text>
</g>
<!-- addrlib -->
<g id="node13" class="node"><title>addrlib</title>
<ellipse fill="none" stroke="black" cx="277.731" cy="-383" rx="36.2938" ry="18"/>
<text text-anchor="middle" x="277.731" y="-379.3" font-family="Times New Roman,serif" font-size="14.00">addrlib</text>
</g>
<!-- cwpack -->
<g id="node14" class="node"><title>cwpack</title>
<ellipse fill="none" stroke="black" cx="277.731" cy="-437" rx="38.9931" ry="18"/>
<text text-anchor="middle" x="277.731" y="-433.3" font-family="Times New Roman,serif" font-size="14.00">cwpack</text>
</g>
<!-- gpuopen -->
<g id="node15" class="node"><title>gpuopen</title>
<ellipse fill="none" stroke="black" cx="277.731" cy="-491" rx="42.4939" ry="18"/>
<text text-anchor="middle" x="277.731" y="-487.3" font-family="Times New Roman,serif" font-size="14.00">gpuopen</text>
</g>
<!-- metrohash -->
<g id="node16" class="node"><title>metrohash</title>
<ellipse fill="none" stroke="black" cx="277.731" cy="-545" rx="48.1917" ry="18"/>
<text text-anchor="middle" x="277.731" y="-541.3" font-family="Times New Roman,serif" font-size="14.00">metrohash</text>
</g>
<!-- pal -->
<g id="node17" class="node"><title>pal</title>
<ellipse fill="none" stroke="black" cx="89.6442" cy="-518" rx="27" ry="18"/>
<text text-anchor="middle" x="89.6442" y="-514.3" font-family="Times New Roman,serif" font-size="14.00">pal</text>
</g>
<!-- pal&#45;&gt;addrlib -->
<g id="edge2" class="edge"><title>pal&#45;&gt;addrlib</title>
<path fill="none" stroke="black" d="M100.403,-501.456C115.281,-477.675 145.889,-434.053 183.288,-410 197.99,-400.545 216.081,-394.321 232.416,-390.262"/>
<polygon fill="black" stroke="black" points="233.342,-393.641 242.314,-388.005 231.786,-386.816 233.342,-393.641"/>
</g>
<!-- pal&#45;&gt;cwpack -->
<g id="edge3" class="edge"><title>pal&#45;&gt;cwpack</title>
<path fill="none" stroke="black" d="M109.091,-505.408C127.295,-493.433 156.248,-475.577 183.288,-464 198.824,-457.349 216.493,-451.772 232.254,-447.445"/>
<polygon fill="black" stroke="black" points="233.524,-450.73 242.294,-444.784 231.731,-443.963 233.524,-450.73"/>
</g>
<!-- pal&#45;&gt;gpuopen -->
<g id="edge4" class="edge"><title>pal&#45;&gt;gpuopen</title>
<path fill="none" stroke="black" d="M116.129,-514.302C144.667,-510.162 191.602,-503.352 227.383,-498.16"/>
<polygon fill="black" stroke="black" points="228.23,-501.574 237.624,-496.674 227.225,-494.646 228.23,-501.574"/>
</g>
<!-- pal&#45;&gt;metrohash -->
<g id="edge5" class="edge"><title>pal&#45;&gt;metrohash</title>
<path fill="none" stroke="black" d="M116.129,-521.698C143.398,-525.654 187.466,-532.048 222.548,-537.138"/>
<polygon fill="black" stroke="black" points="222.251,-540.632 232.65,-538.604 223.256,-533.704 222.251,-540.632"/>
</g>
<!-- vam -->
<g id="node18" class="node"><title>vam</title>
<ellipse fill="none" stroke="black" cx="277.731" cy="-599" rx="27" ry="18"/>
<text text-anchor="middle" x="277.731" y="-595.3" font-family="Times New Roman,serif" font-size="14.00">vam</text>
</g>
<!-- pal&#45;&gt;vam -->
<g id="edge6" class="edge"><title>pal&#45;&gt;vam</title>
<path fill="none" stroke="black" d="M109.091,-530.592C127.295,-542.567 156.248,-560.423 183.288,-572 202.192,-580.093 224.256,-586.596 242.195,-591.191"/>
<polygon fill="black" stroke="black" points="241.41,-594.602 251.958,-593.609 243.093,-587.807 241.41,-594.602"/>
</g>
<!-- sc -->
<g id="node19" class="node"><title>sc</title>
<ellipse fill="none" stroke="black" cx="277.731" cy="-682" rx="27" ry="18"/>
<text text-anchor="middle" x="277.731" y="-678.3" font-family="Times New Roman,serif" font-size="14.00">sc</text>
</g>
<!-- pal&#45;&gt;sc -->
<g id="edge7" class="edge"><title>pal&#45;&gt;sc</title>
<path fill="none" stroke="black" d="M98.1599,-535.547C111.277,-564.122 141.039,-620.657 183.288,-652 200.145,-664.505 222.416,-671.922 240.987,-676.252"/>
<polygon fill="black" stroke="black" points="240.356,-679.696 250.866,-678.353 241.812,-672.849 240.356,-679.696"/>
</g>
<!-- sp3 -->
<g id="node20" class="node"><title>sp3</title>
<ellipse fill="none" stroke="black" cx="427.173" cy="-682" rx="27" ry="18"/>
<text text-anchor="middle" x="427.173" y="-678.3" font-family="Times New Roman,serif" font-size="14.00">sp3</text>
</g>
<!-- sc&#45;&gt;sp3 -->
<g id="edge1" class="edge"><title>sc&#45;&gt;sp3</title>
<path fill="none" stroke="black" d="M304.751,-682C328.398,-682 363.519,-682 389.914,-682"/>
<polygon fill="black" stroke="black" points="389.917,-685.5 399.917,-682 389.917,-678.5 389.917,-685.5"/>
</g>
<!-- spirv -->
<g id="node21" class="node"><title>spirv</title>
<ellipse fill="none" stroke="black" cx="89.6442" cy="-300" rx="28.6953" ry="18"/>
<text text-anchor="middle" x="89.6442" y="-296.3" font-family="Times New Roman,serif" font-size="14.00">spirv</text>
</g>
</g>
</svg>
