<?xml version="1.0" encoding="UTF-8" standalone="no"?>
<!DOCTYPE svg PUBLIC "-//W3C//DTD SVG 1.1//EN"
 "http://www.w3.org/Graphics/SVG/1.1/DTD/svg11.dtd">
<!-- Generated by graphviz version 2.38.0 (20140413.2041)
 -->
<!-- Title: %3 Pages: 1 -->
<svg width="781pt" height="2828pt"
 viewBox="0.00 0.00 780.54 2828.00" xmlns="http://www.w3.org/2000/svg" xmlns:xlink="http://www.w3.org/1999/xlink">
<g id="graph0" class="graph" transform="scale(1 1) rotate(0) translate(4 2824)">
<title>%3</title>
<polygon fill="white" stroke="none" points="-4,4 -4,-2824 776.542,-2824 776.542,4 -4,4"/>
<g id="clust1" class="cluster"><title>cluster_icd</title>
<polygon fill="none" stroke="black" points="8,-2463 8,-2812 427.418,-2812 427.418,-2463 8,-2463"/>
<text text-anchor="middle" x="217.709" y="-2796.8" font-family="Times New Roman,serif" font-size="14.00">icd</text>
</g>
<g id="clust3" class="cluster"><title>cluster_wsi</title>
<polygon fill="none" stroke="black" points="289.976,-2608 289.976,-2683 359.976,-2683 359.976,-2608 289.976,-2608"/>
<text text-anchor="middle" x="324.976" y="-2667.8" font-family="Times New Roman,serif" font-size="14.00">wsi</text>
</g>
<g id="clust2" class="cluster"><title>cluster_scl</title>
<polygon fill="none" stroke="black" points="230.533,-2471 230.533,-2600 419.418,-2600 419.418,-2471 230.533,-2471"/>
<text text-anchor="middle" x="324.976" y="-2584.8" font-family="Times New Roman,serif" font-size="14.00">scl</text>
</g>
<g id="clust4" class="cluster"><title>cluster_imported</title>
<polygon fill="none" stroke="black" points="83.895,-206 83.895,-2455 764.542,-2455 764.542,-206 83.895,-206"/>
<text text-anchor="middle" x="424.219" y="-2439.8" font-family="Times New Roman,serif" font-size="14.00">imported</text>
</g>
<g id="clust5" class="cluster"><title>cluster_bil</title>
<polygon fill="none" stroke="black" points="289.976,-2349 289.976,-2424 359.976,-2424 359.976,-2349 289.976,-2349"/>
<text text-anchor="middle" x="324.976" y="-2408.8" font-family="Times New Roman,serif" font-size="14.00">bil</text>
</g>
<g id="clust6" class="cluster"><title>cluster_glslang</title>
<polygon fill="none" stroke="black" points="251.332,-2050 251.332,-2341 398.62,-2341 398.62,-2050 251.332,-2050"/>
<text text-anchor="middle" x="324.976" y="-2325.8" font-family="Times New Roman,serif" font-size="14.00">glslang</text>
</g>
<g id="clust8" class="cluster"><title>cluster_sc</title>
<polygon fill="none" stroke="black" points="289.976,-1913 289.976,-2042 359.976,-2042 359.976,-1913 289.976,-1913"/>
<text text-anchor="middle" x="324.976" y="-2026.8" font-family="Times New Roman,serif" font-size="14.00">sc</text>
</g>
<g id="clust7" class="cluster"><title>cluster_pal</title>
<polygon fill="none" stroke="black" points="268.88,-1560 268.88,-1905 381.072,-1905 381.072,-1560 268.88,-1560"/>
<text text-anchor="middle" x="324.976" y="-1889.8" font-family="Times New Roman,serif" font-size="14.00">pal</text>
</g>
<g id="clust9" class="cluster"><title>cluster_spirv</title>
<polygon fill="none" stroke="black" points="91.895,-214 91.895,-1552 756.542,-1552 756.542,-214 91.895,-214"/>
<text text-anchor="middle" x="424.219" y="-1536.8" font-family="Times New Roman,serif" font-size="14.00">spirv</text>
</g>
<g id="clust10" class="cluster"><title>cluster_SPIRV_Tools</title>
<polygon fill="none" stroke="black" points="99.895,-322 99.895,-1261 748.542,-1261 748.542,-322 99.895,-322"/>
<text text-anchor="middle" x="424.219" y="-1245.8" font-family="Times New Roman,serif" font-size="14.00">SPIRV&#45;Tools</text>
</g>
<!-- oglp_glsl_compiler -->
<g id="node1" class="node"><title>oglp_glsl_compiler</title>
<ellipse fill="#8080ff" stroke="black" cx="324.976" cy="-2551" rx="80.6858" ry="18"/>
<text text-anchor="middle" x="324.976" y="-2547.3" font-family="Times New Roman,serif" font-size="14.00">oglp_glsl_compiler</text>
</g>
<!-- oglp_spirv_compiler -->
<g id="node2" class="node"><title>oglp_spirv_compiler</title>
<ellipse fill="#8080ff" stroke="black" cx="324.976" cy="-2497" rx="86.3847" ry="18"/>
<text text-anchor="middle" x="324.976" y="-2493.3" font-family="Times New Roman,serif" font-size="14.00">oglp_spirv_compiler</text>
</g>
<!-- wgl -->
<g id="node3" class="node"><title>wgl</title>
<ellipse fill="#8080ff" stroke="black" cx="324.976" cy="-2634" rx="27" ry="18"/>
<text text-anchor="middle" x="324.976" y="-2630.3" font-family="Times New Roman,serif" font-size="14.00">wgl</text>
</g>
<!-- glapi -->
<g id="node4" class="node"><title>glapi</title>
<ellipse fill="#ff8080" stroke="black" cx="43.9475" cy="-2489" rx="27.8951" ry="18"/>
<text text-anchor="middle" x="43.9475" y="-2485.3" font-family="Times New Roman,serif" font-size="14.00">glapi</text>
</g>
<!-- glapi&#45;&gt;oglp_glsl_compiler -->
<g id="edge22" class="edge"><title>glapi&#45;&gt;oglp_glsl_compiler</title>
<path fill="none" stroke="red" d="M58.1676,-2504.72C65.0696,-2511.83 74.1091,-2519.61 83.895,-2524 131.039,-2545.17 188.415,-2552.21 235.254,-2553.83"/>
<polygon fill="red" stroke="red" points="235.296,-2557.33 245.386,-2554.1 235.483,-2550.33 235.296,-2557.33"/>
</g>
<!-- glapi&#45;&gt;oglp_spirv_compiler -->
<g id="edge21" class="edge"><title>glapi&#45;&gt;oglp_spirv_compiler</title>
<path fill="none" stroke="red" d="M71.9555,-2489.77C108.007,-2490.81 173.736,-2492.69 229.029,-2494.28"/>
<polygon fill="red" stroke="red" points="229.126,-2497.78 239.222,-2494.57 229.327,-2490.78 229.126,-2497.78"/>
</g>
<!-- glapi&#45;&gt;wgl -->
<g id="edge27" class="edge"><title>glapi&#45;&gt;wgl</title>
<path fill="none" stroke="red" d="M45.4336,-2507.05C47.1833,-2532.91 54.4943,-2580.02 83.895,-2604 142.665,-2651.94 237.965,-2647.18 289.028,-2640.21"/>
<polygon fill="red" stroke="red" points="289.542,-2643.67 298.926,-2638.75 288.523,-2636.75 289.542,-2643.67"/>
</g>
<!-- glcore -->
<g id="node5" class="node"><title>glcore</title>
<ellipse fill="#8080ff" stroke="black" cx="324.976" cy="-2709" rx="33.2948" ry="18"/>
<text text-anchor="middle" x="324.976" y="-2705.3" font-family="Times New Roman,serif" font-size="14.00">glcore</text>
</g>
<!-- glapi&#45;&gt;glcore -->
<g id="edge26" class="edge"><title>glapi&#45;&gt;glcore</title>
<path fill="none" stroke="red" d="M45.8313,-2507.23C48.3838,-2551.54 57.3616,-2663.06 83.895,-2687 138.671,-2736.41 231.821,-2728.21 284.542,-2718.31"/>
<polygon fill="red" stroke="red" points="285.4,-2721.71 294.524,-2716.32 284.033,-2714.84 285.4,-2721.71"/>
</g>
<!-- utils -->
<g id="node6" class="node"><title>utils</title>
<ellipse fill="#8080ff" stroke="black" cx="324.976" cy="-2763" rx="27" ry="18"/>
<text text-anchor="middle" x="324.976" y="-2759.3" font-family="Times New Roman,serif" font-size="14.00">utils</text>
</g>
<!-- glapi&#45;&gt;utils -->
<g id="edge20" class="edge"><title>glapi&#45;&gt;utils</title>
<path fill="none" stroke="red" d="M45.0776,-2507.01C45.8492,-2558.47 50.9559,-2704.49 83.895,-2736 139.048,-2788.76 237.092,-2780.16 289.189,-2770.77"/>
<polygon fill="red" stroke="red" points="290.11,-2774.16 299.273,-2768.84 288.793,-2767.28 290.11,-2774.16"/>
</g>
<!-- bil -->
<g id="node7" class="node"><title>bil</title>
<ellipse fill="#8080ff" stroke="black" cx="324.976" cy="-2375" rx="27" ry="18"/>
<text text-anchor="middle" x="324.976" y="-2371.3" font-family="Times New Roman,serif" font-size="14.00">bil</text>
</g>
<!-- glapi&#45;&gt;bil -->
<g id="edge32" class="edge"><title>glapi&#45;&gt;bil</title>
<path fill="none" stroke="red" d="M64.862,-2477C70.8806,-2473.58 77.5716,-2469.98 83.895,-2467 155.755,-2433.16 243.712,-2401.92 290.669,-2386.01"/>
<polygon fill="red" stroke="red" points="291.96,-2389.27 300.32,-2382.76 289.726,-2382.63 291.96,-2389.27"/>
</g>
<!-- glslang -->
<g id="node8" class="node"><title>glslang</title>
<ellipse fill="#8080ff" stroke="black" cx="324.976" cy="-2292" rx="35.9954" ry="18"/>
<text text-anchor="middle" x="324.976" y="-2288.3" font-family="Times New Roman,serif" font-size="14.00">glslang</text>
</g>
<!-- glapi&#45;&gt;glslang -->
<g id="edge34" class="edge"><title>glapi&#45;&gt;glslang</title>
<path fill="none" stroke="red" d="M44.2743,-2470.54C44.2255,-2439.86 48.8569,-2378.43 83.895,-2345 136.586,-2294.72 225.69,-2287.92 279.261,-2288.98"/>
<polygon fill="red" stroke="red" points="279.381,-2292.48 289.481,-2289.28 279.59,-2285.48 279.381,-2292.48"/>
</g>
<!-- OGLCompiler -->
<g id="node9" class="node"><title>OGLCompiler</title>
<ellipse fill="#8080ff" stroke="black" cx="324.976" cy="-2238" rx="63.8893" ry="18"/>
<text text-anchor="middle" x="324.976" y="-2234.3" font-family="Times New Roman,serif" font-size="14.00">OGLCompiler</text>
</g>
<!-- glapi&#45;&gt;OGLCompiler -->
<g id="edge36" class="edge"><title>glapi&#45;&gt;OGLCompiler</title>
<path fill="none" stroke="red" d="M45.4011,-2470.95C47.0097,-2422.8 54.0794,-2293.07 83.895,-2265 130.944,-2220.7 208.32,-2219.94 262.478,-2226.36"/>
<polygon fill="red" stroke="red" points="262.278,-2229.87 272.646,-2227.68 263.18,-2222.93 262.278,-2229.87"/>
</g>
<!-- OSDependent -->
<g id="node10" class="node"><title>OSDependent</title>
<ellipse fill="#8080ff" stroke="black" cx="324.976" cy="-2184" rx="61.99" ry="18"/>
<text text-anchor="middle" x="324.976" y="-2180.3" font-family="Times New Roman,serif" font-size="14.00">OSDependent</text>
</g>
<!-- glapi&#45;&gt;OSDependent -->
<g id="edge35" class="edge"><title>glapi&#45;&gt;OSDependent</title>
<path fill="none" stroke="red" d="M44.7246,-2470.78C44.4476,-2414.82 46.7856,-2247.11 83.895,-2211 130.772,-2165.38 209.629,-2165.32 264.108,-2172.24"/>
<polygon fill="red" stroke="red" points="263.936,-2175.75 274.322,-2173.66 264.897,-2168.82 263.936,-2175.75"/>
</g>
<!-- SPIRV -->
<g id="node11" class="node"><title>SPIRV</title>
<ellipse fill="#8080ff" stroke="black" cx="324.976" cy="-2130" rx="37.0935" ry="18"/>
<text text-anchor="middle" x="324.976" y="-2126.3" font-family="Times New Roman,serif" font-size="14.00">SPIRV</text>
</g>
<!-- glapi&#45;&gt;SPIRV -->
<g id="edge33" class="edge"><title>glapi&#45;&gt;SPIRV</title>
<path fill="none" stroke="red" d="M45.7854,-2470.7C48.9965,-2404.38 61.4768,-2179.31 83.895,-2157 135.425,-2105.72 227.234,-2111.5 281.157,-2120.58"/>
<polygon fill="red" stroke="red" points="280.628,-2124.05 291.09,-2122.37 281.865,-2117.16 280.628,-2124.05"/>
</g>
<!-- addrlib -->
<g id="node13" class="node"><title>addrlib</title>
<ellipse fill="#8080ff" stroke="black" cx="324.976" cy="-1856" rx="36.2938" ry="18"/>
<text text-anchor="middle" x="324.976" y="-1852.3" font-family="Times New Roman,serif" font-size="14.00">addrlib</text>
</g>
<!-- glapi&#45;&gt;addrlib -->
<g id="edge38" class="edge"><title>glapi&#45;&gt;addrlib</title>
<path fill="none" stroke="red" d="M44.8969,-2470.96C44.7997,-2377.67 46.4269,-1952.57 83.895,-1909 131.875,-1853.21 224.104,-1848.52 279.23,-1851.41"/>
<polygon fill="red" stroke="red" points="279.204,-1854.92 289.404,-1852.06 279.645,-1847.93 279.204,-1854.92"/>
</g>
<!-- cwpack -->
<g id="node14" class="node"><title>cwpack</title>
<ellipse fill="#8080ff" stroke="black" cx="324.976" cy="-1802" rx="38.9931" ry="18"/>
<text text-anchor="middle" x="324.976" y="-1798.3" font-family="Times New Roman,serif" font-size="14.00">cwpack</text>
</g>
<!-- glapi&#45;&gt;cwpack -->
<g id="edge41" class="edge"><title>glapi&#45;&gt;cwpack</title>
<path fill="none" stroke="red" d="M45.3685,-2470.7C47.8445,-2366.61 61.1876,-1852.95 83.895,-1829 133.649,-1776.53 225.263,-1782.49 279.798,-1791.97"/>
<polygon fill="red" stroke="red" points="279.389,-1795.45 289.859,-1793.83 280.663,-1788.57 279.389,-1795.45"/>
</g>
<!-- gpuopen -->
<g id="node15" class="node"><title>gpuopen</title>
<ellipse fill="#8080ff" stroke="black" cx="324.976" cy="-1748" rx="42.4939" ry="18"/>
<text text-anchor="middle" x="324.976" y="-1744.3" font-family="Times New Roman,serif" font-size="14.00">gpuopen</text>
</g>
<!-- glapi&#45;&gt;gpuopen -->
<g id="edge42" class="edge"><title>glapi&#45;&gt;gpuopen</title>
<path fill="none" stroke="red" d="M45.2785,-2471C47.351,-2362.66 59.2604,-1801.09 83.895,-1775 132.856,-1723.14 222.697,-1728.26 277.509,-1737.55"/>
<polygon fill="red" stroke="red" points="277.187,-1741.05 287.651,-1739.38 278.433,-1734.16 277.187,-1741.05"/>
</g>
<!-- metrohash -->
<g id="node16" class="node"><title>metrohash</title>
<ellipse fill="#8080ff" stroke="black" cx="324.976" cy="-1694" rx="48.1917" ry="18"/>
<text text-anchor="middle" x="324.976" y="-1690.3" font-family="Times New Roman,serif" font-size="14.00">metrohash</text>
</g>
<!-- glapi&#45;&gt;metrohash -->
<g id="edge40" class="edge"><title>glapi&#45;&gt;metrohash</title>
<path fill="none" stroke="red" d="M45.2109,-2470.76C46.9345,-2357.04 57.3706,-1749.2 83.895,-1721 131.641,-1670.23 218.547,-1673.99 273.665,-1682.88"/>
<polygon fill="red" stroke="red" points="273.121,-1686.34 283.57,-1684.59 274.31,-1679.44 273.121,-1686.34"/>
</g>
<!-- pal -->
<g id="node17" class="node"><title>pal</title>
<ellipse fill="#8080ff" stroke="black" cx="324.976" cy="-1640" rx="27" ry="18"/>
<text text-anchor="middle" x="324.976" y="-1636.3" font-family="Times New Roman,serif" font-size="14.00">pal</text>
</g>
<!-- glapi&#45;&gt;pal -->
<g id="edge24" class="edge"><title>glapi&#45;&gt;pal</title>
<path fill="none" stroke="red" d="M45.1495,-2470.64C46.5374,-2351.98 55.4688,-1697.33 83.895,-1667 136.468,-1610.91 236.822,-1621.3 289.592,-1631.72"/>
<polygon fill="red" stroke="red" points="288.979,-1635.17 299.483,-1633.79 290.41,-1628.32 288.979,-1635.17"/>
</g>
<!-- vam -->
<g id="node18" class="node"><title>vam</title>
<ellipse fill="#8080ff" stroke="black" cx="324.976" cy="-1586" rx="27" ry="18"/>
<text text-anchor="middle" x="324.976" y="-1582.3" font-family="Times New Roman,serif" font-size="14.00">vam</text>
</g>
<!-- glapi&#45;&gt;vam -->
<g id="edge39" class="edge"><title>glapi&#45;&gt;vam</title>
<path fill="none" stroke="red" d="M45.0941,-2470.64C46.1597,-2347.49 53.5551,-1645.46 83.895,-1613 136.387,-1556.84 236.775,-1567.25 289.572,-1577.7"/>
<polygon fill="red" stroke="red" points="288.964,-1581.15 299.469,-1579.77 290.397,-1574.3 288.964,-1581.15"/>
</g>
<!-- sc -->
<g id="node19" class="node"><title>sc</title>
<ellipse fill="#8080ff" stroke="black" cx="324.976" cy="-1993" rx="27" ry="18"/>
<text text-anchor="middle" x="324.976" y="-1989.3" font-family="Times New Roman,serif" font-size="14.00">sc</text>
</g>
<!-- glapi&#45;&gt;sc -->
<g id="edge25" class="edge"><title>glapi&#45;&gt;sc</title>
<path fill="none" stroke="red" d="M45.295,-2470.96C46.9814,-2391.89 55.4301,-2078.41 83.895,-2046 135.12,-1987.67 234.737,-1985.47 288.131,-1989.09"/>
<polygon fill="red" stroke="red" points="287.923,-1992.58 298.166,-1989.87 288.47,-1985.6 287.923,-1992.58"/>
</g>
<!-- sp3 -->
<g id="node20" class="node"><title>sp3</title>
<ellipse fill="#8080ff" stroke="black" cx="324.976" cy="-1939" rx="27" ry="18"/>
<text text-anchor="middle" x="324.976" y="-1935.3" font-family="Times New Roman,serif" font-size="14.00">sp3</text>
</g>
<!-- glapi&#45;&gt;sp3 -->
<g id="edge37" class="edge"><title>glapi&#45;&gt;sp3</title>
<path fill="none" stroke="red" d="M44.9559,-2470.96C45.1708,-2383.13 48.171,-2003.1 83.895,-1966 137.084,-1910.77 236.738,-1920.65 289.37,-1930.82"/>
<polygon fill="red" stroke="red" points="288.744,-1934.26 299.242,-1932.83 290.145,-1927.4 288.744,-1934.26"/>
</g>
<!-- SPIRV_Tools -->
<g id="node27" class="node"><title>SPIRV_Tools</title>
<ellipse fill="#8080ff" stroke="black" cx="659.299" cy="-996" rx="63.8893" ry="18"/>
<text text-anchor="middle" x="659.299" y="-992.3" font-family="Times New Roman,serif" font-size="14.00">SPIRV_Tools</text>
</g>
<!-- glapi&#45;&gt;SPIRV_Tools -->
<g id="edge31" class="edge"><title>glapi&#45;&gt;SPIRV_Tools</title>
<path fill="none" stroke="red" d="M44.9042,-2471.01C44.436,-2259.41 41.1249,-252.045 83.895,-210 120.198,-174.312 505.08,-175.011 542.057,-210 594.677,-259.791 556.941,-791.702 578.057,-861 590.623,-902.241 618.28,-944.041 637.591,-969.974"/>
<polygon fill="red" stroke="red" points="634.952,-972.287 643.786,-978.137 640.528,-968.056 634.952,-972.287"/>
</g>
<!-- spirv_cross_core -->
<g id="node42" class="node"><title>spirv_cross_core</title>
<ellipse fill="#8080ff" stroke="black" cx="659.299" cy="-294" rx="74.9875" ry="18"/>
<text text-anchor="middle" x="659.299" y="-290.3" font-family="Times New Roman,serif" font-size="14.00">spirv_cross_core</text>
</g>
<!-- glapi&#45;&gt;spirv_cross_core -->
<g id="edge30" class="edge"><title>glapi&#45;&gt;spirv_cross_core</title>
<path fill="none" stroke="red" d="M44.8995,-2470.77C44.3772,-2256.39 40.5667,-222.604 83.895,-180 120.194,-144.308 499.734,-151.71 542.057,-180 576.846,-203.255 547.481,-238.43 578.057,-267 582.638,-271.281 587.92,-274.885 593.543,-277.918"/>
<polygon fill="red" stroke="red" points="592.073,-281.095 602.606,-282.231 595.081,-274.774 592.073,-281.095"/>
</g>
<!-- spirv_cross_glsl -->
<g id="node44" class="node"><title>spirv_cross_glsl</title>
<ellipse fill="#8080ff" stroke="black" cx="659.299" cy="-240" rx="70.6878" ry="18"/>
<text text-anchor="middle" x="659.299" y="-236.3" font-family="Times New Roman,serif" font-size="14.00">spirv_cross_glsl</text>
</g>
<!-- glapi&#45;&gt;spirv_cross_glsl -->
<g id="edge29" class="edge"><title>glapi&#45;&gt;spirv_cross_glsl</title>
<path fill="none" stroke="red" d="M44.8961,-2470.88C44.3267,-2255.69 40.0232,-195.147 83.895,-152 156.486,-80.6092 445.54,-119.587 542.057,-152 578.975,-164.398 613.505,-193.681 635.182,-215.073"/>
<polygon fill="red" stroke="red" points="632.778,-217.619 642.297,-222.271 637.756,-212.698 632.778,-217.619"/>
</g>
<!-- setupapi -->
<g id="node51" class="node"><title>setupapi</title>
<ellipse fill="#8080ff" stroke="black" cx="324.976" cy="-72" rx="40.8928" ry="18"/>
<text text-anchor="middle" x="324.976" y="-68.3" font-family="Times New Roman,serif" font-size="14.00">setupapi</text>
</g>
<!-- glapi&#45;&gt;setupapi -->
<g id="edge23" class="edge"><title>glapi&#45;&gt;setupapi</title>
<path fill="none" stroke="red" d="M44.914,-2470.87C44.5507,-2253.36 42.1222,-150.931 83.895,-104 131.664,-50.3322 222.618,-54.0494 277.83,-62.4571"/>
<polygon fill="red" stroke="red" points="277.271,-65.9122 287.705,-64.0688 278.399,-59.0036 277.271,-65.9122"/>
</g>
<!-- synchronization -->
<g id="node52" class="node"><title>synchronization</title>
<ellipse fill="#8080ff" stroke="black" cx="324.976" cy="-18" rx="67.6881" ry="18"/>
<text text-anchor="middle" x="324.976" y="-14.3" font-family="Times New Roman,serif" font-size="14.00">synchronization</text>
</g>
<!-- glapi&#45;&gt;synchronization -->
<g id="edge28" class="edge"><title>glapi&#45;&gt;synchronization</title>
<path fill="none" stroke="red" d="M44.9026,-2470.76C44.3978,-2249.71 40.5851,-92.6836 83.895,-45 127.898,3.44701 207.454,2.86583 262.874,-4.97484"/>
<polygon fill="red" stroke="red" points="262.513,-8.46024 272.927,-6.51316 263.572,-1.54078 262.513,-8.46024"/>
</g>
<!-- SPVRemapper -->
<g id="node12" class="node"><title>SPVRemapper</title>
<ellipse fill="#8080ff" stroke="black" cx="324.976" cy="-2076" rx="65.7887" ry="18"/>
<text text-anchor="middle" x="324.976" y="-2072.3" font-family="Times New Roman,serif" font-size="14.00">SPVRemapper</text>
</g>
<!-- spirv_as -->
<g id="node21" class="node"><title>spirv_as</title>
<ellipse fill="#ff8080" stroke="black" cx="324.976" cy="-996" rx="41.6928" ry="18"/>
<text text-anchor="middle" x="324.976" y="-992.3" font-family="Times New Roman,serif" font-size="14.00">spirv_as</text>
</g>
<!-- spirv_as&#45;&gt;SPIRV_Tools -->
<g id="edge1" class="edge"><title>spirv_as&#45;&gt;SPIRV_Tools</title>
<path fill="none" stroke="black" d="M366.725,-996C421.046,-996 518.118,-996 585.248,-996"/>
<polygon fill="black" stroke="black" points="585.34,-999.5 595.34,-996 585.34,-992.5 585.34,-999.5"/>
</g>
<!-- spirv_cfg -->
<g id="node22" class="node"><title>spirv_cfg</title>
<ellipse fill="#ff8080" stroke="black" cx="324.976" cy="-1212" rx="45.4919" ry="18"/>
<text text-anchor="middle" x="324.976" y="-1208.3" font-family="Times New Roman,serif" font-size="14.00">spirv_cfg</text>
</g>
<!-- spirv_cfg&#45;&gt;SPIRV_Tools -->
<g id="edge2" class="edge"><title>spirv_cfg&#45;&gt;SPIRV_Tools</title>
<path fill="none" stroke="black" d="M366.7,-1219.6C414.922,-1226.07 494.656,-1228.4 542.057,-1185 598.055,-1133.73 525.872,-1073.15 578.057,-1018 581.966,-1013.87 586.571,-1010.49 591.565,-1007.72"/>
<polygon fill="black" stroke="black" points="593.312,-1010.77 600.909,-1003.39 590.365,-1004.42 593.312,-1010.77"/>
</g>
<!-- spirv_dis -->
<g id="node23" class="node"><title>spirv_dis</title>
<ellipse fill="#ff8080" stroke="black" cx="324.976" cy="-1158" rx="44.393" ry="18"/>
<text text-anchor="middle" x="324.976" y="-1154.3" font-family="Times New Roman,serif" font-size="14.00">spirv_dis</text>
</g>
<!-- spirv_dis&#45;&gt;SPIRV_Tools -->
<g id="edge3" class="edge"><title>spirv_dis&#45;&gt;SPIRV_Tools</title>
<path fill="none" stroke="black" d="M366.013,-1164.81C413.558,-1170.5 492.626,-1172.08 542.057,-1131 582.596,-1097.31 540.032,-1054.5 578.057,-1018 582.16,-1014.06 586.899,-1010.81 591.981,-1008.14"/>
<polygon fill="black" stroke="black" points="593.735,-1011.19 601.438,-1003.91 590.88,-1004.8 593.735,-1011.19"/>
</g>
<!-- spirv_link -->
<g id="node24" class="node"><title>spirv_link</title>
<ellipse fill="#ff8080" stroke="black" cx="324.976" cy="-348" rx="46.2923" ry="18"/>
<text text-anchor="middle" x="324.976" y="-344.3" font-family="Times New Roman,serif" font-size="14.00">spirv_link</text>
</g>
<!-- spirv_link&#45;&gt;SPIRV_Tools -->
<g id="edge4" class="edge"><title>spirv_link&#45;&gt;SPIRV_Tools</title>
<path fill="none" stroke="black" d="M366.029,-339.592C415.109,-331.887 497.249,-327.876 542.057,-375 616.681,-453.481 545.524,-757.706 578.057,-861 591.008,-902.122 618.574,-943.949 637.76,-969.922"/>
<polygon fill="black" stroke="black" points="635.102,-972.212 643.912,-978.098 640.696,-968.003 635.102,-972.212"/>
</g>
<!-- SPIRV_Tools_link -->
<g id="node32" class="node"><title>SPIRV_Tools_link</title>
<ellipse fill="#8080ff" stroke="black" cx="659.299" cy="-348" rx="81.4863" ry="18"/>
<text text-anchor="middle" x="659.299" y="-344.3" font-family="Times New Roman,serif" font-size="14.00">SPIRV_Tools_link</text>
</g>
<!-- spirv_link&#45;&gt;SPIRV_Tools_link -->
<g id="edge5" class="edge"><title>spirv_link&#45;&gt;SPIRV_Tools_link</title>
<path fill="none" stroke="black" d="M371.14,-348C421.424,-348 503.997,-348 567.722,-348"/>
<polygon fill="black" stroke="black" points="567.78,-351.5 577.78,-348 567.78,-344.5 567.78,-351.5"/>
</g>
<!-- SPIRV_Tools_opt -->
<g id="node33" class="node"><title>SPIRV_Tools_opt</title>
<ellipse fill="#8080ff" stroke="black" cx="659.299" cy="-834" rx="80.6858" ry="18"/>
<text text-anchor="middle" x="659.299" y="-830.3" font-family="Times New Roman,serif" font-size="14.00">SPIRV_Tools_opt</text>
</g>
<!-- spirv_link&#45;&gt;SPIRV_Tools_opt -->
<g id="edge6" class="edge"><title>spirv_link&#45;&gt;SPIRV_Tools_opt</title>
<path fill="none" stroke="black" d="M367.29,-340.58C415.34,-334.483 494.172,-332.701 542.057,-375 607.993,-433.244 644.933,-714.981 655.27,-805.754"/>
<polygon fill="black" stroke="black" points="651.809,-806.3 656.398,-815.85 658.765,-805.523 651.809,-806.3"/>
</g>
<!-- spirv_opt -->
<g id="node25" class="node"><title>spirv_opt</title>
<ellipse fill="#ff8080" stroke="black" cx="324.976" cy="-834" rx="46.2923" ry="18"/>
<text text-anchor="middle" x="324.976" y="-830.3" font-family="Times New Roman,serif" font-size="14.00">spirv_opt</text>
</g>
<!-- spirv_opt&#45;&gt;SPIRV_Tools -->
<g id="edge7" class="edge"><title>spirv_opt&#45;&gt;SPIRV_Tools</title>
<path fill="none" stroke="black" d="M370.573,-830.528C416.332,-828.956 488.245,-832.152 542.057,-861 588.451,-885.872 624.536,-937.344 643.513,-969.053"/>
<polygon fill="black" stroke="black" points="640.565,-970.945 648.627,-977.82 646.612,-967.419 640.565,-970.945"/>
</g>
<!-- spirv_opt&#45;&gt;SPIRV_Tools_opt -->
<g id="edge8" class="edge"><title>spirv_opt&#45;&gt;SPIRV_Tools_opt</title>
<path fill="none" stroke="black" d="M371.14,-834C421.593,-834 504.551,-834 568.362,-834"/>
<polygon fill="black" stroke="black" points="568.431,-837.5 578.431,-834 568.431,-830.5 568.431,-837.5"/>
</g>
<!-- spirv_stats -->
<g id="node26" class="node"><title>spirv_stats</title>
<ellipse fill="#ff8080" stroke="black" cx="324.976" cy="-1104" rx="50.0912" ry="18"/>
<text text-anchor="middle" x="324.976" y="-1100.3" font-family="Times New Roman,serif" font-size="14.00">spirv_stats</text>
</g>
<!-- spirv_stats&#45;&gt;SPIRV_Tools -->
<g id="edge9" class="edge"><title>spirv_stats&#45;&gt;SPIRV_Tools</title>
<path fill="none" stroke="black" d="M372.911,-1109.31C419.544,-1112.17 491.249,-1109.83 542.057,-1077 567.858,-1060.33 553.514,-1036.47 578.057,-1018 583.055,-1014.24 588.659,-1011.12 594.521,-1008.53"/>
<polygon fill="black" stroke="black" points="595.84,-1011.77 603.894,-1004.89 593.305,-1005.25 595.84,-1011.77"/>
</g>
<!-- spirv_tools_build_version -->
<g id="node28" class="node"><title>spirv_tools_build_version</title>
<ellipse fill="#ffff80" stroke="black" cx="324.976" cy="-888" rx="105.881" ry="18"/>
<text text-anchor="middle" x="324.976" y="-884.3" font-family="Times New Roman,serif" font-size="14.00">spirv_tools_build_version</text>
</g>
<!-- spirv_tools_cpp_example -->
<g id="node29" class="node"><title>spirv_tools_cpp_example</title>
<ellipse fill="#ff8080" stroke="black" cx="324.976" cy="-942" rx="105.082" ry="18"/>
<text text-anchor="middle" x="324.976" y="-938.3" font-family="Times New Roman,serif" font-size="14.00">spirv_tools_cpp_example</text>
</g>
<!-- spirv_tools_cpp_example&#45;&gt;SPIRV_Tools -->
<g id="edge10" class="edge"><title>spirv_tools_cpp_example&#45;&gt;SPIRV_Tools</title>
<path fill="none" stroke="black" d="M415.914,-951.122C454.839,-955.615 500.835,-961.658 542.057,-969 561.594,-972.48 582.785,-977.136 601.656,-981.6"/>
<polygon fill="black" stroke="black" points="601.043,-985.052 611.584,-983.981 602.676,-978.245 601.043,-985.052"/>
</g>
<!-- spirv_tools_cpp_example&#45;&gt;SPIRV_Tools_opt -->
<g id="edge11" class="edge"><title>spirv_tools_cpp_example&#45;&gt;SPIRV_Tools_opt</title>
<path fill="none" stroke="black" d="M429.308,-939.258C465.865,-935.664 506.673,-928.58 542.057,-915 576.008,-901.97 609.514,-876.975 631.766,-858.18"/>
<polygon fill="black" stroke="black" points="634.145,-860.75 639.434,-851.57 629.575,-855.448 634.145,-860.75"/>
</g>
<!-- spirv_tools_debuginfo -->
<g id="node30" class="node"><title>spirv_tools_debuginfo</title>
<ellipse fill="#ffff80" stroke="black" cx="324.976" cy="-780" rx="92.8835" ry="18"/>
<text text-anchor="middle" x="324.976" y="-776.3" font-family="Times New Roman,serif" font-size="14.00">spirv_tools_debuginfo</text>
</g>
<!-- spirv_tools_header_DebugInfo -->
<g id="node31" class="node"><title>spirv_tools_header_DebugInfo</title>
<ellipse fill="#ffff80" stroke="black" cx="324.976" cy="-726" rx="124.278" ry="18"/>
<text text-anchor="middle" x="324.976" y="-722.3" font-family="Times New Roman,serif" font-size="14.00">spirv_tools_header_DebugInfo</text>
</g>
<!-- SPIRV_Tools_shared -->
<g id="node34" class="node"><title>SPIRV_Tools_shared</title>
<ellipse fill="#80ff80" stroke="black" cx="324.976" cy="-672" rx="92.0841" ry="18"/>
<text text-anchor="middle" x="324.976" y="-668.3" font-family="Times New Roman,serif" font-size="14.00">SPIRV_Tools_shared</text>
</g>
<!-- spirv_tools_spv_amd_gcn_shader -->
<g id="node35" class="node"><title>spirv_tools_spv_amd_gcn_shader</title>
<ellipse fill="#ffff80" stroke="black" cx="324.976" cy="-618" rx="137.276" ry="18"/>
<text text-anchor="middle" x="324.976" y="-614.3" font-family="Times New Roman,serif" font-size="14.00">spirv_tools_spv_amd_gcn_shader</text>
</g>
<!-- spirv_tools_spv_amd_shader_ballot -->
<g id="node36" class="node"><title>spirv_tools_spv_amd_shader_ballot</title>
<ellipse fill="#ffff80" stroke="black" cx="324.976" cy="-564" rx="143.775" ry="18"/>
<text text-anchor="middle" x="324.976" y="-560.3" font-family="Times New Roman,serif" font-size="14.00">spirv_tools_spv_amd_shader_ballot</text>
</g>
<!-- spirv_tools_spv_amd_shader_explicit_vertex_parameter -->
<g id="node37" class="node"><title>spirv_tools_spv_amd_shader_explicit_vertex_parameter</title>
<ellipse fill="#ffff80" stroke="black" cx="324.976" cy="-510" rx="217.162" ry="18"/>
<text text-anchor="middle" x="324.976" y="-506.3" font-family="Times New Roman,serif" font-size="14.00">spirv_tools_spv_amd_shader_explicit_vertex_parameter</text>
</g>
<!-- spirv_tools_spv_amd_shader_trinary_minmax -->
<g id="node38" class="node"><title>spirv_tools_spv_amd_shader_trinary_minmax</title>
<ellipse fill="#ffff80" stroke="black" cx="324.976" cy="-456" rx="180.068" ry="18"/>
<text text-anchor="middle" x="324.976" y="-452.3" font-family="Times New Roman,serif" font-size="14.00">spirv_tools_spv_amd_shader_trinary_minmax</text>
</g>
<!-- spirv_tools_vimsyntax -->
<g id="node39" class="node"><title>spirv_tools_vimsyntax</title>
<ellipse fill="#ffff80" stroke="black" cx="324.976" cy="-402" rx="92.8835" ry="18"/>
<text text-anchor="middle" x="324.976" y="-398.3" font-family="Times New Roman,serif" font-size="14.00">spirv_tools_vimsyntax</text>
</g>
<!-- spirv_val -->
<g id="node40" class="node"><title>spirv_val</title>
<ellipse fill="#ff8080" stroke="black" cx="324.976" cy="-1050" rx="44.393" ry="18"/>
<text text-anchor="middle" x="324.976" y="-1046.3" font-family="Times New Roman,serif" font-size="14.00">spirv_val</text>
</g>
<!-- spirv_val&#45;&gt;SPIRV_Tools -->
<g id="edge12" class="edge"><title>spirv_val&#45;&gt;SPIRV_Tools</title>
<path fill="none" stroke="black" d="M368.404,-1046.01C412.117,-1041.6 482.132,-1033.67 542.057,-1023 561.594,-1019.52 582.785,-1014.86 601.656,-1010.4"/>
<polygon fill="black" stroke="black" points="602.676,-1013.75 611.584,-1008.02 601.043,-1006.95 602.676,-1013.75"/>
</g>
<!-- spirv_cross -->
<g id="node41" class="node"><title>spirv_cross</title>
<ellipse fill="#ff8080" stroke="black" cx="324.976" cy="-1341" rx="53.8905" ry="18"/>
<text text-anchor="middle" x="324.976" y="-1337.3" font-family="Times New Roman,serif" font-size="14.00">spirv_cross</text>
</g>
<!-- spirv_cross&#45;&gt;spirv_cross_core -->
<g id="edge19" class="edge"><title>spirv_cross&#45;&gt;spirv_cross_core</title>
<path fill="none" stroke="black" d="M378.894,-1338.51C429.8,-1332.99 504.418,-1316.05 542.057,-1265 604.542,-1180.25 513.573,-401.244 578.057,-318 580.711,-314.573 583.836,-311.619 587.285,-309.073"/>
<polygon fill="black" stroke="black" points="589.139,-312.042 595.853,-303.847 585.494,-306.066 589.139,-312.042"/>
</g>
<!-- spirv_cross_cpp -->
<g id="node43" class="node"><title>spirv_cross_cpp</title>
<ellipse fill="#8080ff" stroke="black" cx="659.299" cy="-1503" rx="72.5877" ry="18"/>
<text text-anchor="middle" x="659.299" y="-1499.3" font-family="Times New Roman,serif" font-size="14.00">spirv_cross_cpp</text>
</g>
<!-- spirv_cross&#45;&gt;spirv_cross_cpp -->
<g id="edge15" class="edge"><title>spirv_cross&#45;&gt;spirv_cross_cpp</title>
<path fill="none" stroke="black" d="M351.752,-1356.67C396.597,-1383.51 492.39,-1438.96 578.057,-1476 585.911,-1479.4 594.343,-1482.64 602.684,-1485.64"/>
<polygon fill="black" stroke="black" points="601.798,-1489.03 612.393,-1489.02 604.104,-1482.42 601.798,-1489.03"/>
</g>
<!-- spirv_cross&#45;&gt;spirv_cross_glsl -->
<g id="edge13" class="edge"><title>spirv_cross&#45;&gt;spirv_cross_glsl</title>
<path fill="none" stroke="black" d="M378.437,-1338.57C429.369,-1333.12 504.349,-1316.25 542.057,-1265 607.816,-1175.62 511.69,-355.926 578.057,-267 581.661,-262.17 586.169,-258.195 591.199,-254.925"/>
<polygon fill="black" stroke="black" points="592.997,-257.93 600.089,-250.059 589.636,-251.79 592.997,-257.93"/>
</g>
<!-- spirv_cross_hlsl -->
<g id="node45" class="node"><title>spirv_cross_hlsl</title>
<ellipse fill="#8080ff" stroke="black" cx="659.299" cy="-1287" rx="70.6878" ry="18"/>
<text text-anchor="middle" x="659.299" y="-1283.3" font-family="Times New Roman,serif" font-size="14.00">spirv_cross_hlsl</text>
</g>
<!-- spirv_cross&#45;&gt;spirv_cross_hlsl -->
<g id="edge14" class="edge"><title>spirv_cross&#45;&gt;spirv_cross_hlsl</title>
<path fill="none" stroke="black" d="M373.944,-1333.21C430.419,-1324.03 524.662,-1308.72 589.053,-1298.25"/>
<polygon fill="black" stroke="black" points="589.812,-1301.67 599.121,-1296.62 588.689,-1294.77 589.812,-1301.67"/>
</g>
<!-- spirv_cross_msl -->
<g id="node46" class="node"><title>spirv_cross_msl</title>
<ellipse fill="#8080ff" stroke="black" cx="659.299" cy="-1341" rx="71.4873" ry="18"/>
<text text-anchor="middle" x="659.299" y="-1337.3" font-family="Times New Roman,serif" font-size="14.00">spirv_cross_msl</text>
</g>
<!-- spirv_cross&#45;&gt;spirv_cross_msl -->
<g id="edge17" class="edge"><title>spirv_cross&#45;&gt;spirv_cross_msl</title>
<path fill="none" stroke="black" d="M379.001,-1341C432.552,-1341 515.961,-1341 577.698,-1341"/>
<polygon fill="black" stroke="black" points="577.799,-1344.5 587.799,-1341 577.799,-1337.5 577.799,-1344.5"/>
</g>
<!-- spirv_cross_reflect -->
<g id="node47" class="node"><title>spirv_cross_reflect</title>
<ellipse fill="#8080ff" stroke="black" cx="659.299" cy="-1395" rx="81.4863" ry="18"/>
<text text-anchor="middle" x="659.299" y="-1391.3" font-family="Times New Roman,serif" font-size="14.00">spirv_cross_reflect</text>
</g>
<!-- spirv_cross&#45;&gt;spirv_cross_reflect -->
<g id="edge16" class="edge"><title>spirv_cross&#45;&gt;spirv_cross_reflect</title>
<path fill="none" stroke="black" d="M373.944,-1348.79C428.712,-1357.69 519.002,-1372.37 583.137,-1382.79"/>
<polygon fill="black" stroke="black" points="582.764,-1386.27 593.196,-1384.42 583.887,-1379.36 582.764,-1386.27"/>
</g>
<!-- spirv_cross_util -->
<g id="node48" class="node"><title>spirv_cross_util</title>
<ellipse fill="#8080ff" stroke="black" cx="659.299" cy="-1449" rx="69.5877" ry="18"/>
<text text-anchor="middle" x="659.299" y="-1445.3" font-family="Times New Roman,serif" font-size="14.00">spirv_cross_util</text>
</g>
<!-- spirv_cross&#45;&gt;spirv_cross_util -->
<g id="edge18" class="edge"><title>spirv_cross&#45;&gt;spirv_cross_util</title>
<path fill="none" stroke="black" d="M364.422,-1353.49C423.942,-1372.84 538.518,-1410.07 605.673,-1431.9"/>
<polygon fill="black" stroke="black" points="604.633,-1435.24 615.225,-1435 606.797,-1428.58 604.633,-1435.24"/>
</g>
<!-- spirv_tools_pkg_config -->
<g id="node49" class="node"><title>spirv_tools_pkg_config</title>
<ellipse fill="#ffff80" stroke="black" cx="324.976" cy="-294" rx="98.2828" ry="18"/>
<text text-anchor="middle" x="324.976" y="-290.3" font-family="Times New Roman,serif" font-size="14.00">spirv_tools_pkg_config</text>
</g>
<!-- spirv_tools_shared_pkg_config -->
<g id="node50" class="node"><title>spirv_tools_shared_pkg_config</title>
<ellipse fill="#ffff80" stroke="black" cx="324.976" cy="-240" rx="126.978" ry="18"/>
<text text-anchor="middle" x="324.976" y="-236.3" font-family="Times New Roman,serif" font-size="14.00">spirv_tools_shared_pkg_config</text>
</g>
</g>
</svg>
