<?xml version="1.0" encoding="UTF-8" standalone="no"?>
<!DOCTYPE svg PUBLIC "-//W3C//DTD SVG 1.1//EN"
 "http://www.w3.org/Graphics/SVG/1.1/DTD/svg11.dtd">
<!-- Generated by graphviz version 2.38.0 (20140413.2041)
 -->
<!-- Title: %3 Pages: 1 -->
<svg width="710pt" height="2539pt"
 viewBox="0.00 0.00 709.85 2539.00" xmlns="http://www.w3.org/2000/svg" xmlns:xlink="http://www.w3.org/1999/xlink">
<g id="graph0" class="graph" transform="scale(1 1) rotate(0) translate(4 2535)">
<title>%3</title>
<polygon fill="white" stroke="none" points="-4,4 -4,-2535 705.847,-2535 705.847,4 -4,4"/>
<g id="clust1" class="cluster"><title>cluster_icd</title>
<polygon fill="none" stroke="black" points="206.081,-44 206.081,-258 691.046,-258 691.046,-44 206.081,-44"/>
<text text-anchor="middle" x="448.563" y="-242.8" font-family="Times New Roman,serif" font-size="14.00">icd</text>
</g>
<g id="clust3" class="cluster"><title>cluster_wsi</title>
<polygon fill="none" stroke="black" points="214.081,-152 214.081,-227 284.081,-227 284.081,-152 214.081,-152"/>
<text text-anchor="middle" x="249.081" y="-211.8" font-family="Times New Roman,serif" font-size="14.00">wsi</text>
</g>
<g id="clust2" class="cluster"><title>cluster_scl</title>
<polygon fill="none" stroke="black" points="494.161,-52 494.161,-181 683.046,-181 683.046,-52 494.161,-52"/>
<text text-anchor="middle" x="588.604" y="-165.8" font-family="Times New Roman,serif" font-size="14.00">scl</text>
</g>
<g id="clust4" class="cluster"><title>cluster_imported</title>
<polygon fill="none" stroke="black" points="8,-266 8,-2523 693.847,-2523 693.847,-266 8,-266"/>
<text text-anchor="middle" x="350.923" y="-2507.8" font-family="Times New Roman,serif" font-size="14.00">imported</text>
</g>
<g id="clust5" class="cluster"><title>cluster_bil</title>
<polygon fill="none" stroke="black" points="214.081,-2417 214.081,-2492 284.081,-2492 284.081,-2417 214.081,-2417"/>
<text text-anchor="middle" x="249.081" y="-2476.8" font-family="Times New Roman,serif" font-size="14.00">bil</text>
</g>
<g id="clust6" class="cluster"><title>cluster_glslang</title>
<polygon fill="none" stroke="black" points="175.437,-2118 175.437,-2409 322.725,-2409 322.725,-2118 175.437,-2118"/>
<text text-anchor="middle" x="249.081" y="-2393.8" font-family="Times New Roman,serif" font-size="14.00">glslang</text>
</g>
<g id="clust7" class="cluster"><title>cluster_pal</title>
<polygon fill="none" stroke="black" points="192.985,-1765 192.985,-2110 305.176,-2110 305.176,-1765 192.985,-1765"/>
<text text-anchor="middle" x="249.081" y="-2094.8" font-family="Times New Roman,serif" font-size="14.00">pal</text>
</g>
<g id="clust8" class="cluster"><title>cluster_sc</title>
<polygon fill="none" stroke="black" points="214.081,-1628 214.081,-1757 284.081,-1757 284.081,-1628 214.081,-1628"/>
<text text-anchor="middle" x="249.081" y="-1741.8" font-family="Times New Roman,serif" font-size="14.00">sc</text>
</g>
<g id="clust9" class="cluster"><title>cluster_spirv</title>
<polygon fill="none" stroke="black" points="16,-274 16,-1620 685.847,-1620 685.847,-274 16,-274"/>
<text text-anchor="middle" x="350.923" y="-1604.8" font-family="Times New Roman,serif" font-size="14.00">spirv</text>
</g>
<g id="clust10" class="cluster"><title>cluster_SPIRV_Tools</title>
<polygon fill="none" stroke="black" points="24,-650 24,-1589 677.847,-1589 677.847,-650 24,-650"/>
<text text-anchor="middle" x="350.923" y="-1573.8" font-family="Times New Roman,serif" font-size="14.00">SPIRV&#45;Tools</text>
</g>
<!-- oglp_glsl_compiler -->
<g id="node1" class="node"><title>oglp_glsl_compiler</title>
<ellipse fill="#8080ff" stroke="black" cx="588.604" cy="-132" rx="80.6858" ry="18"/>
<text text-anchor="middle" x="588.604" y="-128.3" font-family="Times New Roman,serif" font-size="14.00">oglp_glsl_compiler</text>
</g>
<!-- oglp_spirv_compiler -->
<g id="node2" class="node"><title>oglp_spirv_compiler</title>
<ellipse fill="#8080ff" stroke="black" cx="588.604" cy="-78" rx="86.3847" ry="18"/>
<text text-anchor="middle" x="588.604" y="-74.3" font-family="Times New Roman,serif" font-size="14.00">oglp_spirv_compiler</text>
</g>
<!-- wgl -->
<g id="node3" class="node"><title>wgl</title>
<ellipse fill="#8080ff" stroke="black" cx="249.081" cy="-178" rx="27" ry="18"/>
<text text-anchor="middle" x="249.081" y="-174.3" font-family="Times New Roman,serif" font-size="14.00">wgl</text>
</g>
<!-- glapi -->
<g id="node4" class="node"><title>glapi</title>
<ellipse fill="#ff8080" stroke="black" cx="249.081" cy="-124" rx="27.8951" ry="18"/>
<text text-anchor="middle" x="249.081" y="-120.3" font-family="Times New Roman,serif" font-size="14.00">glapi</text>
</g>
<!-- glapi&#45;&gt;oglp_glsl_compiler -->
<g id="edge22" class="edge"><title>glapi&#45;&gt;oglp_glsl_compiler</title>
<path fill="none" stroke="black" d="M277.131,-124.641C324.492,-125.764 424.404,-128.132 498.156,-129.88"/>
<polygon fill="black" stroke="black" points="498.301,-133.384 508.381,-130.122 498.467,-126.386 498.301,-133.384"/>
</g>
<!-- glapi&#45;&gt;oglp_spirv_compiler -->
<g id="edge21" class="edge"><title>glapi&#45;&gt;oglp_spirv_compiler</title>
<path fill="none" stroke="black" d="M276.728,-120.939C317.556,-116.188 398.026,-106.585 466.161,-97 480.327,-95.0074 495.4,-92.7556 509.935,-90.517"/>
<polygon fill="black" stroke="black" points="510.548,-93.9639 519.893,-88.9727 509.475,-87.0466 510.548,-93.9639"/>
</g>
<!-- utils -->
<g id="node6" class="node"><title>utils</title>
<ellipse fill="#8080ff" stroke="black" cx="588.604" cy="-207" rx="27" ry="18"/>
<text text-anchor="middle" x="588.604" y="-203.3" font-family="Times New Roman,serif" font-size="14.00">utils</text>
</g>
<!-- glapi&#45;&gt;utils -->
<g id="edge20" class="edge"><title>glapi&#45;&gt;utils</title>
<path fill="none" stroke="black" d="M276.715,-120.553C319.643,-116.329 405.453,-113.498 466.161,-148 484.091,-158.19 476.879,-173.748 494.161,-185 511.17,-196.073 533.141,-201.59 551.505,-204.331"/>
<polygon fill="black" stroke="black" points="551.195,-207.819 561.558,-205.615 552.082,-200.876 551.195,-207.819"/>
</g>
<!-- setupapi -->
<g id="node51" class="node"><title>setupapi</title>
<ellipse fill="#8080ff" stroke="black" cx="588.604" cy="-18" rx="40.8928" ry="18"/>
<text text-anchor="middle" x="588.604" y="-14.3" font-family="Times New Roman,serif" font-size="14.00">setupapi</text>
</g>
<!-- glapi&#45;&gt;setupapi -->
<g id="edge23" class="edge"><title>glapi&#45;&gt;setupapi</title>
<path fill="none" stroke="black" d="M276.589,-127.797C320.097,-132.584 407.652,-136.004 466.161,-97 487.032,-83.0872 474.676,-63.7943 494.161,-48 507.082,-37.5269 523.736,-30.6788 539.397,-26.2141"/>
<polygon fill="black" stroke="black" points="540.687,-29.4961 549.496,-23.6101 538.939,-22.7178 540.687,-29.4961"/>
</g>
<!-- glcore -->
<g id="node5" class="node"><title>glcore</title>
<ellipse fill="#8080ff" stroke="black" cx="249.081" cy="-70" rx="33.2948" ry="18"/>
<text text-anchor="middle" x="249.081" y="-66.3" font-family="Times New Roman,serif" font-size="14.00">glcore</text>
</g>
<!-- bil -->
<g id="node7" class="node"><title>bil</title>
<ellipse fill="#8080ff" stroke="black" cx="249.081" cy="-2443" rx="27" ry="18"/>
<text text-anchor="middle" x="249.081" y="-2439.3" font-family="Times New Roman,serif" font-size="14.00">bil</text>
</g>
<!-- glslang -->
<g id="node8" class="node"><title>glslang</title>
<ellipse fill="#8080ff" stroke="black" cx="249.081" cy="-2360" rx="35.9954" ry="18"/>
<text text-anchor="middle" x="249.081" y="-2356.3" font-family="Times New Roman,serif" font-size="14.00">glslang</text>
</g>
<!-- OGLCompiler -->
<g id="node9" class="node"><title>OGLCompiler</title>
<ellipse fill="#8080ff" stroke="black" cx="249.081" cy="-2306" rx="63.8893" ry="18"/>
<text text-anchor="middle" x="249.081" y="-2302.3" font-family="Times New Roman,serif" font-size="14.00">OGLCompiler</text>
</g>
<!-- OSDependent -->
<g id="node10" class="node"><title>OSDependent</title>
<ellipse fill="#8080ff" stroke="black" cx="249.081" cy="-2252" rx="61.99" ry="18"/>
<text text-anchor="middle" x="249.081" y="-2248.3" font-family="Times New Roman,serif" font-size="14.00">OSDependent</text>
</g>
<!-- SPIRV -->
<g id="node11" class="node"><title>SPIRV</title>
<ellipse fill="#8080ff" stroke="black" cx="249.081" cy="-2198" rx="37.0935" ry="18"/>
<text text-anchor="middle" x="249.081" y="-2194.3" font-family="Times New Roman,serif" font-size="14.00">SPIRV</text>
</g>
<!-- SPVRemapper -->
<g id="node12" class="node"><title>SPVRemapper</title>
<ellipse fill="#8080ff" stroke="black" cx="249.081" cy="-2144" rx="65.7887" ry="18"/>
<text text-anchor="middle" x="249.081" y="-2140.3" font-family="Times New Roman,serif" font-size="14.00">SPVRemapper</text>
</g>
<!-- addrlib -->
<g id="node13" class="node"><title>addrlib</title>
<ellipse fill="#8080ff" stroke="black" cx="249.081" cy="-2061" rx="36.2938" ry="18"/>
<text text-anchor="middle" x="249.081" y="-2057.3" font-family="Times New Roman,serif" font-size="14.00">addrlib</text>
</g>
<!-- cwpack -->
<g id="node14" class="node"><title>cwpack</title>
<ellipse fill="#8080ff" stroke="black" cx="249.081" cy="-2007" rx="38.9931" ry="18"/>
<text text-anchor="middle" x="249.081" y="-2003.3" font-family="Times New Roman,serif" font-size="14.00">cwpack</text>
</g>
<!-- gpuopen -->
<g id="node15" class="node"><title>gpuopen</title>
<ellipse fill="#8080ff" stroke="black" cx="249.081" cy="-1953" rx="42.4939" ry="18"/>
<text text-anchor="middle" x="249.081" y="-1949.3" font-family="Times New Roman,serif" font-size="14.00">gpuopen</text>
</g>
<!-- metrohash -->
<g id="node16" class="node"><title>metrohash</title>
<ellipse fill="#8080ff" stroke="black" cx="249.081" cy="-1899" rx="48.1917" ry="18"/>
<text text-anchor="middle" x="249.081" y="-1895.3" font-family="Times New Roman,serif" font-size="14.00">metrohash</text>
</g>
<!-- pal -->
<g id="node17" class="node"><title>pal</title>
<ellipse fill="#8080ff" stroke="black" cx="249.081" cy="-1845" rx="27" ry="18"/>
<text text-anchor="middle" x="249.081" y="-1841.3" font-family="Times New Roman,serif" font-size="14.00">pal</text>
</g>
<!-- vam -->
<g id="node18" class="node"><title>vam</title>
<ellipse fill="#8080ff" stroke="black" cx="249.081" cy="-1791" rx="27" ry="18"/>
<text text-anchor="middle" x="249.081" y="-1787.3" font-family="Times New Roman,serif" font-size="14.00">vam</text>
</g>
<!-- sc -->
<g id="node19" class="node"><title>sc</title>
<ellipse fill="#8080ff" stroke="black" cx="249.081" cy="-1708" rx="27" ry="18"/>
<text text-anchor="middle" x="249.081" y="-1704.3" font-family="Times New Roman,serif" font-size="14.00">sc</text>
</g>
<!-- sp3 -->
<g id="node20" class="node"><title>sp3</title>
<ellipse fill="#8080ff" stroke="black" cx="249.081" cy="-1654" rx="27" ry="18"/>
<text text-anchor="middle" x="249.081" y="-1650.3" font-family="Times New Roman,serif" font-size="14.00">sp3</text>
</g>
<!-- spirv_as -->
<g id="node21" class="node"><title>spirv_as</title>
<ellipse fill="#ff8080" stroke="black" cx="249.081" cy="-1540" rx="41.6928" ry="18"/>
<text text-anchor="middle" x="249.081" y="-1536.3" font-family="Times New Roman,serif" font-size="14.00">spirv_as</text>
</g>
<!-- SPIRV_Tools -->
<g id="node27" class="node"><title>SPIRV_Tools</title>
<ellipse fill="#8080ff" stroke="black" cx="588.604" cy="-1351" rx="63.8893" ry="18"/>
<text text-anchor="middle" x="588.604" y="-1347.3" font-family="Times New Roman,serif" font-size="14.00">SPIRV_Tools</text>
</g>
<!-- spirv_as&#45;&gt;SPIRV_Tools -->
<g id="edge1" class="edge"><title>spirv_as&#45;&gt;SPIRV_Tools</title>
<path fill="none" stroke="black" d="M290.062,-1543.95C335.79,-1546.54 411.394,-1544.79 466.161,-1513 520.3,-1481.58 557.885,-1415.48 575.748,-1378.15"/>
<polygon fill="black" stroke="black" points="579.017,-1379.42 580.062,-1368.88 572.67,-1376.47 579.017,-1379.42"/>
</g>
<!-- spirv_cfg -->
<g id="node22" class="node"><title>spirv_cfg</title>
<ellipse fill="#ff8080" stroke="black" cx="249.081" cy="-1486" rx="45.4919" ry="18"/>
<text text-anchor="middle" x="249.081" y="-1482.3" font-family="Times New Roman,serif" font-size="14.00">spirv_cfg</text>
</g>
<!-- spirv_cfg&#45;&gt;SPIRV_Tools -->
<g id="edge2" class="edge"><title>spirv_cfg&#45;&gt;SPIRV_Tools</title>
<path fill="none" stroke="black" d="M294.363,-1487.99C339.552,-1488.33 410.724,-1484.13 466.161,-1459 507.669,-1440.18 545.143,-1402.12 567.15,-1376.58"/>
<polygon fill="black" stroke="black" points="569.965,-1378.68 573.737,-1368.78 564.614,-1374.16 569.965,-1378.68"/>
</g>
<!-- spirv_dis -->
<g id="node23" class="node"><title>spirv_dis</title>
<ellipse fill="#ff8080" stroke="black" cx="249.081" cy="-1432" rx="44.393" ry="18"/>
<text text-anchor="middle" x="249.081" y="-1428.3" font-family="Times New Roman,serif" font-size="14.00">spirv_dis</text>
</g>
<!-- spirv_dis&#45;&gt;SPIRV_Tools -->
<g id="edge3" class="edge"><title>spirv_dis&#45;&gt;SPIRV_Tools</title>
<path fill="none" stroke="black" d="M293.451,-1430.32C337.611,-1427.75 407.704,-1421.26 466.161,-1405 494.882,-1397.01 525.545,-1383.33 548.875,-1371.74"/>
<polygon fill="black" stroke="black" points="550.73,-1374.72 558.076,-1367.09 547.572,-1368.48 550.73,-1374.72"/>
</g>
<!-- spirv_link -->
<g id="node24" class="node"><title>spirv_link</title>
<ellipse fill="#ff8080" stroke="black" cx="249.081" cy="-676" rx="46.2923" ry="18"/>
<text text-anchor="middle" x="249.081" y="-672.3" font-family="Times New Roman,serif" font-size="14.00">spirv_link</text>
</g>
<!-- spirv_link&#45;&gt;SPIRV_Tools -->
<g id="edge4" class="edge"><title>spirv_link&#45;&gt;SPIRV_Tools</title>
<path fill="none" stroke="black" d="M289.831,-667.543C338.99,-659.671 421.612,-655.373 466.161,-703 503.111,-742.502 478.675,-1137.17 494.161,-1189 509.729,-1241.1 544.917,-1294.36 567.393,-1324.97"/>
<polygon fill="black" stroke="black" points="564.86,-1327.43 573.646,-1333.35 570.47,-1323.24 564.86,-1327.43"/>
</g>
<!-- SPIRV_Tools_link -->
<g id="node32" class="node"><title>SPIRV_Tools_link</title>
<ellipse fill="#8080ff" stroke="black" cx="588.604" cy="-678" rx="81.4863" ry="18"/>
<text text-anchor="middle" x="588.604" y="-674.3" font-family="Times New Roman,serif" font-size="14.00">SPIRV_Tools_link</text>
</g>
<!-- spirv_link&#45;&gt;SPIRV_Tools_link -->
<g id="edge5" class="edge"><title>spirv_link&#45;&gt;SPIRV_Tools_link</title>
<path fill="none" stroke="black" d="M295.25,-676.268C346.574,-676.572 431.657,-677.076 496.839,-677.462"/>
<polygon fill="black" stroke="black" points="497.101,-680.964 507.121,-677.523 497.142,-673.964 497.101,-680.964"/>
</g>
<!-- SPIRV_Tools_opt -->
<g id="node33" class="node"><title>SPIRV_Tools_opt</title>
<ellipse fill="#8080ff" stroke="black" cx="588.604" cy="-1162" rx="80.6858" ry="18"/>
<text text-anchor="middle" x="588.604" y="-1158.3" font-family="Times New Roman,serif" font-size="14.00">SPIRV_Tools_opt</text>
</g>
<!-- spirv_link&#45;&gt;SPIRV_Tools_opt -->
<g id="edge6" class="edge"><title>spirv_link&#45;&gt;SPIRV_Tools_opt</title>
<path fill="none" stroke="black" d="M291.318,-668.668C339.293,-662.656 418.053,-660.956 466.161,-703 532.589,-761.053 572.834,-1042.92 584.241,-1133.74"/>
<polygon fill="black" stroke="black" points="580.789,-1134.34 585.488,-1143.84 587.736,-1133.49 580.789,-1134.34"/>
</g>
<!-- spirv_opt -->
<g id="node25" class="node"><title>spirv_opt</title>
<ellipse fill="#ff8080" stroke="black" cx="249.081" cy="-1270" rx="46.2923" ry="18"/>
<text text-anchor="middle" x="249.081" y="-1266.3" font-family="Times New Roman,serif" font-size="14.00">spirv_opt</text>
</g>
<!-- spirv_opt&#45;&gt;SPIRV_Tools -->
<g id="edge7" class="edge"><title>spirv_opt&#45;&gt;SPIRV_Tools</title>
<path fill="none" stroke="black" d="M295.114,-1271.78C339.357,-1274.42 408.432,-1280.94 466.161,-1297 494.882,-1304.99 525.545,-1318.67 548.875,-1330.26"/>
<polygon fill="black" stroke="black" points="547.572,-1333.52 558.076,-1334.91 550.73,-1327.28 547.572,-1333.52"/>
</g>
<!-- spirv_opt&#45;&gt;SPIRV_Tools_opt -->
<g id="edge8" class="edge"><title>spirv_opt&#45;&gt;SPIRV_Tools_opt</title>
<path fill="none" stroke="black" d="M295.375,-1270.34C340.114,-1269.3 409.825,-1263.97 466.161,-1243 501.431,-1229.87 536.644,-1204.72 560,-1185.91"/>
<polygon fill="black" stroke="black" points="562.238,-1188.6 567.748,-1179.55 557.797,-1183.19 562.238,-1188.6"/>
</g>
<!-- spirv_stats -->
<g id="node26" class="node"><title>spirv_stats</title>
<ellipse fill="#ff8080" stroke="black" cx="249.081" cy="-1378" rx="50.0912" ry="18"/>
<text text-anchor="middle" x="249.081" y="-1374.3" font-family="Times New Roman,serif" font-size="14.00">spirv_stats</text>
</g>
<!-- spirv_stats&#45;&gt;SPIRV_Tools -->
<g id="edge9" class="edge"><title>spirv_stats&#45;&gt;SPIRV_Tools</title>
<path fill="none" stroke="black" d="M298.081,-1374.16C355.264,-1369.59 451.292,-1361.9 516.957,-1356.65"/>
<polygon fill="black" stroke="black" points="517.535,-1360.12 527.224,-1355.83 516.977,-1353.14 517.535,-1360.12"/>
</g>
<!-- spirv_tools_build_version -->
<g id="node28" class="node"><title>spirv_tools_build_version</title>
<ellipse fill="#ffff80" stroke="black" cx="249.081" cy="-1216" rx="105.881" ry="18"/>
<text text-anchor="middle" x="249.081" y="-1212.3" font-family="Times New Roman,serif" font-size="14.00">spirv_tools_build_version</text>
</g>
<!-- spirv_tools_cpp_example -->
<g id="node29" class="node"><title>spirv_tools_cpp_example</title>
<ellipse fill="#ff8080" stroke="black" cx="249.081" cy="-1162" rx="105.082" ry="18"/>
<text text-anchor="middle" x="249.081" y="-1158.3" font-family="Times New Roman,serif" font-size="14.00">spirv_tools_cpp_example</text>
</g>
<!-- spirv_tools_cpp_example&#45;&gt;SPIRV_Tools -->
<g id="edge10" class="edge"><title>spirv_tools_cpp_example&#45;&gt;SPIRV_Tools</title>
<path fill="none" stroke="black" d="M352.461,-1158.4C390.321,-1161.14 432.239,-1169.31 466.161,-1189 520.3,-1220.42 557.885,-1286.52 575.748,-1323.85"/>
<polygon fill="black" stroke="black" points="572.67,-1325.53 580.062,-1333.12 579.017,-1322.58 572.67,-1325.53"/>
</g>
<!-- spirv_tools_cpp_example&#45;&gt;SPIRV_Tools_opt -->
<g id="edge11" class="edge"><title>spirv_tools_cpp_example&#45;&gt;SPIRV_Tools_opt</title>
<path fill="none" stroke="black" d="M354.564,-1162C400.456,-1162 453.803,-1162 497.867,-1162"/>
<polygon fill="black" stroke="black" points="497.988,-1165.5 507.987,-1162 497.987,-1158.5 497.988,-1165.5"/>
</g>
<!-- spirv_tools_debuginfo -->
<g id="node30" class="node"><title>spirv_tools_debuginfo</title>
<ellipse fill="#ffff80" stroke="black" cx="249.081" cy="-1108" rx="92.8835" ry="18"/>
<text text-anchor="middle" x="249.081" y="-1104.3" font-family="Times New Roman,serif" font-size="14.00">spirv_tools_debuginfo</text>
</g>
<!-- spirv_tools_header_DebugInfo -->
<g id="node31" class="node"><title>spirv_tools_header_DebugInfo</title>
<ellipse fill="#ffff80" stroke="black" cx="249.081" cy="-1054" rx="124.278" ry="18"/>
<text text-anchor="middle" x="249.081" y="-1050.3" font-family="Times New Roman,serif" font-size="14.00">spirv_tools_header_DebugInfo</text>
</g>
<!-- SPIRV_Tools_shared -->
<g id="node34" class="node"><title>SPIRV_Tools_shared</title>
<ellipse fill="#80ff80" stroke="black" cx="249.081" cy="-1000" rx="92.0841" ry="18"/>
<text text-anchor="middle" x="249.081" y="-996.3" font-family="Times New Roman,serif" font-size="14.00">SPIRV_Tools_shared</text>
</g>
<!-- spirv_tools_spv_amd_gcn_shader -->
<g id="node35" class="node"><title>spirv_tools_spv_amd_gcn_shader</title>
<ellipse fill="#ffff80" stroke="black" cx="249.081" cy="-946" rx="137.276" ry="18"/>
<text text-anchor="middle" x="249.081" y="-942.3" font-family="Times New Roman,serif" font-size="14.00">spirv_tools_spv_amd_gcn_shader</text>
</g>
<!-- spirv_tools_spv_amd_shader_ballot -->
<g id="node36" class="node"><title>spirv_tools_spv_amd_shader_ballot</title>
<ellipse fill="#ffff80" stroke="black" cx="249.081" cy="-892" rx="143.775" ry="18"/>
<text text-anchor="middle" x="249.081" y="-888.3" font-family="Times New Roman,serif" font-size="14.00">spirv_tools_spv_amd_shader_ballot</text>
</g>
<!-- spirv_tools_spv_amd_shader_explicit_vertex_parameter -->
<g id="node37" class="node"><title>spirv_tools_spv_amd_shader_explicit_vertex_parameter</title>
<ellipse fill="#ffff80" stroke="black" cx="249.081" cy="-838" rx="217.162" ry="18"/>
<text text-anchor="middle" x="249.081" y="-834.3" font-family="Times New Roman,serif" font-size="14.00">spirv_tools_spv_amd_shader_explicit_vertex_parameter</text>
</g>
<!-- spirv_tools_spv_amd_shader_trinary_minmax -->
<g id="node38" class="node"><title>spirv_tools_spv_amd_shader_trinary_minmax</title>
<ellipse fill="#ffff80" stroke="black" cx="249.081" cy="-784" rx="180.068" ry="18"/>
<text text-anchor="middle" x="249.081" y="-780.3" font-family="Times New Roman,serif" font-size="14.00">spirv_tools_spv_amd_shader_trinary_minmax</text>
</g>
<!-- spirv_tools_vimsyntax -->
<g id="node39" class="node"><title>spirv_tools_vimsyntax</title>
<ellipse fill="#ffff80" stroke="black" cx="249.081" cy="-730" rx="92.8835" ry="18"/>
<text text-anchor="middle" x="249.081" y="-726.3" font-family="Times New Roman,serif" font-size="14.00">spirv_tools_vimsyntax</text>
</g>
<!-- spirv_val -->
<g id="node40" class="node"><title>spirv_val</title>
<ellipse fill="#ff8080" stroke="black" cx="249.081" cy="-1324" rx="44.393" ry="18"/>
<text text-anchor="middle" x="249.081" y="-1320.3" font-family="Times New Roman,serif" font-size="14.00">spirv_val</text>
</g>
<!-- spirv_val&#45;&gt;SPIRV_Tools -->
<g id="edge12" class="edge"><title>spirv_val&#45;&gt;SPIRV_Tools</title>
<path fill="none" stroke="black" d="M292.487,-1327.39C348.819,-1331.9 449.103,-1339.92 516.96,-1345.35"/>
<polygon fill="black" stroke="black" points="516.896,-1348.85 527.143,-1346.16 517.454,-1341.88 516.896,-1348.85"/>
</g>
<!-- spirv_cross -->
<g id="node41" class="node"><title>spirv_cross</title>
<ellipse fill="#ff8080" stroke="black" cx="249.081" cy="-462" rx="53.8905" ry="18"/>
<text text-anchor="middle" x="249.081" y="-458.3" font-family="Times New Roman,serif" font-size="14.00">spirv_cross</text>
</g>
<!-- spirv_cross_core -->
<g id="node42" class="node"><title>spirv_cross_core</title>
<ellipse fill="#8080ff" stroke="black" cx="588.604" cy="-300" rx="74.9875" ry="18"/>
<text text-anchor="middle" x="588.604" y="-296.3" font-family="Times New Roman,serif" font-size="14.00">spirv_cross_core</text>
</g>
<!-- spirv_cross&#45;&gt;spirv_cross_core -->
<g id="edge19" class="edge"><title>spirv_cross&#45;&gt;spirv_cross_core</title>
<path fill="none" stroke="black" d="M301.61,-466.66C350.027,-468.101 421.53,-462.232 466.161,-422 498.856,-392.528 462.953,-358.042 494.161,-327 499.886,-321.306 506.731,-316.797 514.079,-313.23"/>
<polygon fill="black" stroke="black" points="515.765,-316.317 523.61,-309.195 513.036,-309.871 515.765,-316.317"/>
</g>
<!-- spirv_cross_cpp -->
<g id="node43" class="node"><title>spirv_cross_cpp</title>
<ellipse fill="#8080ff" stroke="black" cx="588.604" cy="-354" rx="72.5877" ry="18"/>
<text text-anchor="middle" x="588.604" y="-350.3" font-family="Times New Roman,serif" font-size="14.00">spirv_cross_cpp</text>
</g>
<!-- spirv_cross&#45;&gt;spirv_cross_cpp -->
<g id="edge15" class="edge"><title>spirv_cross&#45;&gt;spirv_cross_cpp</title>
<path fill="none" stroke="black" d="M303.118,-463.257C349.621,-461.924 417.251,-453.859 466.161,-422 484.651,-409.957 476.285,-393.937 494.161,-381 501.596,-375.62 510.084,-371.307 518.845,-367.851"/>
<polygon fill="black" stroke="black" points="520.183,-371.09 528.42,-364.428 517.826,-364.499 520.183,-371.09"/>
</g>
<!-- spirv_cross_glsl -->
<g id="node44" class="node"><title>spirv_cross_glsl</title>
<ellipse fill="#8080ff" stroke="black" cx="588.604" cy="-408" rx="70.6878" ry="18"/>
<text text-anchor="middle" x="588.604" y="-404.3" font-family="Times New Roman,serif" font-size="14.00">spirv_cross_glsl</text>
</g>
<!-- spirv_cross&#45;&gt;spirv_cross_glsl -->
<g id="edge13" class="edge"><title>spirv_cross&#45;&gt;spirv_cross_glsl</title>
<path fill="none" stroke="black" d="M298.081,-454.32C355.523,-445.13 452.163,-429.669 517.848,-419.16"/>
<polygon fill="black" stroke="black" points="518.791,-422.554 528.113,-417.518 517.686,-415.642 518.791,-422.554"/>
</g>
<!-- spirv_cross_hlsl -->
<g id="node45" class="node"><title>spirv_cross_hlsl</title>
<ellipse fill="#8080ff" stroke="black" cx="588.604" cy="-462" rx="70.6878" ry="18"/>
<text text-anchor="middle" x="588.604" y="-458.3" font-family="Times New Roman,serif" font-size="14.00">spirv_cross_hlsl</text>
</g>
<!-- spirv_cross&#45;&gt;spirv_cross_hlsl -->
<g id="edge14" class="edge"><title>spirv_cross&#45;&gt;spirv_cross_hlsl</title>
<path fill="none" stroke="black" d="M303.19,-462C357.969,-462 444.073,-462 507.202,-462"/>
<polygon fill="black" stroke="black" points="507.522,-465.5 517.522,-462 507.522,-458.5 507.522,-465.5"/>
</g>
<!-- spirv_cross_msl -->
<g id="node46" class="node"><title>spirv_cross_msl</title>
<ellipse fill="#8080ff" stroke="black" cx="588.604" cy="-516" rx="71.4873" ry="18"/>
<text text-anchor="middle" x="588.604" y="-512.3" font-family="Times New Roman,serif" font-size="14.00">spirv_cross_msl</text>
</g>
<!-- spirv_cross&#45;&gt;spirv_cross_msl -->
<g id="edge17" class="edge"><title>spirv_cross&#45;&gt;spirv_cross_msl</title>
<path fill="none" stroke="black" d="M298.081,-469.68C355.437,-478.856 451.873,-494.285 517.551,-504.792"/>
<polygon fill="black" stroke="black" points="517.39,-508.311 527.817,-506.435 518.496,-501.399 517.39,-508.311"/>
</g>
<!-- spirv_cross_reflect -->
<g id="node47" class="node"><title>spirv_cross_reflect</title>
<ellipse fill="#8080ff" stroke="black" cx="588.604" cy="-570" rx="81.4863" ry="18"/>
<text text-anchor="middle" x="588.604" y="-566.3" font-family="Times New Roman,serif" font-size="14.00">spirv_cross_reflect</text>
</g>
<!-- spirv_cross&#45;&gt;spirv_cross_reflect -->
<g id="edge16" class="edge"><title>spirv_cross&#45;&gt;spirv_cross_reflect</title>
<path fill="none" stroke="black" d="M287.151,-474.804C334.859,-491.167 420.391,-520.111 494.161,-543 505.014,-546.367 516.617,-549.83 527.826,-553.105"/>
<polygon fill="black" stroke="black" points="526.968,-556.5 537.547,-555.927 528.92,-549.777 526.968,-556.5"/>
</g>
<!-- spirv_cross_util -->
<g id="node48" class="node"><title>spirv_cross_util</title>
<ellipse fill="#8080ff" stroke="black" cx="588.604" cy="-624" rx="69.5877" ry="18"/>
<text text-anchor="middle" x="588.604" y="-620.3" font-family="Times New Roman,serif" font-size="14.00">spirv_cross_util</text>
</g>
<!-- spirv_cross&#45;&gt;spirv_cross_util -->
<g id="edge18" class="edge"><title>spirv_cross&#45;&gt;spirv_cross_util</title>
<path fill="none" stroke="black" d="M274.455,-477.912C317.364,-505.36 409.848,-562.022 494.161,-597 504.777,-601.404 516.354,-605.375 527.629,-608.832"/>
<polygon fill="black" stroke="black" points="526.846,-612.25 537.428,-611.735 528.835,-605.538 526.846,-612.25"/>
</g>
<!-- spirv_tools_pkg_config -->
<g id="node49" class="node"><title>spirv_tools_pkg_config</title>
<ellipse fill="#ffff80" stroke="black" cx="249.081" cy="-395" rx="98.2828" ry="18"/>
<text text-anchor="middle" x="249.081" y="-391.3" font-family="Times New Roman,serif" font-size="14.00">spirv_tools_pkg_config</text>
</g>
<!-- spirv_tools_shared_pkg_config -->
<g id="node50" class="node"><title>spirv_tools_shared_pkg_config</title>
<ellipse fill="#ffff80" stroke="black" cx="249.081" cy="-314" rx="126.978" ry="18"/>
<text text-anchor="middle" x="249.081" y="-310.3" font-family="Times New Roman,serif" font-size="14.00">spirv_tools_shared_pkg_config</text>
</g>
</g>
</svg>
